<?xml version="1.0"?>
<svg xmlns="http://www.w3.org/2000/svg" viewBox="0 0 17 22" fill="#CBD7D5">
  <path opacity="0.4" d="M16.5 5.5H11.6875C11.5052 5.5 11.3303 5.42757 11.2014 5.29864C11.0724 5.16971 11 4.99484 11 4.8125V3.23911e-06H1.03125C0.896166 -0.00033575 0.762335 0.0259361 0.637401 0.0773187C0.512467 0.128701 0.398877 0.204189 0.303116 0.29947C0.207356 0.394752 0.1313 0.507962 0.0792919 0.632637C0.0272837 0.757312 0.000341379 0.89101 3.23911e-06 1.0261V20.9687C-0.00033575 21.1038 0.0259361 21.2377 0.0773187 21.3626C0.128701 21.4875 0.204189 21.6011 0.29947 21.6969C0.394752 21.7926 0.507962 21.8687 0.632637 21.9207C0.757312 21.9727 0.89101 21.9997 1.0261 22H15.4688C15.6038 22.0003 15.7377 21.9741 15.8626 21.9227C15.9875 21.8713 16.1011 21.7958 16.1969 21.7005C16.2926 21.6052 16.3687 21.492 16.4207 21.3674C16.4727 21.2427 16.4997 21.109 16.5 20.9739V5.5ZM13.4621 12.3179L7.31758 18.4112C7.26968 18.4593 7.21276 18.4975 7.15008 18.5235C7.08741 18.5495 7.02021 18.5629 6.95235 18.5629C6.88448 18.5629 6.81729 18.5495 6.75461 18.5235C6.69194 18.4975 6.63502 18.4593 6.58711 18.4112L3.03789 14.8315C2.99002 14.7834 2.95211 14.7263 2.92635 14.6636C2.90058 14.6008 2.88746 14.5335 2.88774 14.4657C2.88802 14.3978 2.90169 14.3307 2.92797 14.2681C2.95426 14.2055 2.99263 14.1488 3.0409 14.1011L4.26121 12.8906C4.30912 12.8426 4.36604 12.8044 4.42871 12.7784C4.49139 12.7524 4.55858 12.739 4.62645 12.739C4.69431 12.739 4.76151 12.7524 4.82418 12.7784C4.88686 12.8044 4.94378 12.8426 4.99168 12.8906L6.96824 14.8822L11.5229 10.3628C11.5708 10.3147 11.6278 10.2766 11.6904 10.2505C11.7531 10.2245 11.8203 10.2111 11.8882 10.2111C11.956 10.2111 12.0232 10.2245 12.0859 10.2505C12.1486 10.2766 12.2055 10.3147 12.2534 10.3628L13.4638 11.5831C13.5124 11.6312 13.551 11.6885 13.5773 11.7516C13.6035 11.8147 13.617 11.8825 13.6168 11.9508C13.6166 12.0192 13.6029 12.0869 13.5763 12.1499C13.5498 12.2129 13.5109 12.27 13.4621 12.3179Z"/>
  <path d="M12.255 10.37C12.2071 10.322 12.1502 10.2838 12.0875 10.2578C12.0248 10.2318 11.9576 10.2184 11.8897 10.2184C11.8219 10.2184 11.7547 10.2318 11.692 10.2578C11.6293 10.2838 11.5724 10.322 11.5245 10.37L6.96982 14.8895L4.99326 12.8979C4.94536 12.8498 4.88844 12.8117 4.82576 12.7857C4.76309 12.7596 4.69589 12.7462 4.62803 12.7462C4.56016 12.7462 4.49297 12.7596 4.43029 12.7857C4.36762 12.8117 4.31069 12.8498 4.26279 12.8979L3.04248 14.1096C2.99421 14.1573 2.95584 14.2141 2.92955 14.2766C2.90327 14.3392 2.8896 14.4064 2.88932 14.4742C2.88904 14.5421 2.90216 14.6093 2.92792 14.6721C2.95369 14.7349 2.9916 14.792 3.03947 14.8401L6.5874 18.4181C6.6353 18.4662 6.69223 18.5043 6.7549 18.5303C6.81758 18.5563 6.88477 18.5697 6.95263 18.5697C7.0205 18.5697 7.08769 18.5563 7.15037 18.5303C7.21304 18.5043 7.26997 18.4662 7.31787 18.4181L13.4624 12.3247C13.5105 12.2768 13.5486 12.2199 13.5746 12.1572C13.6007 12.0945 13.6141 12.0273 13.6141 11.9595C13.6141 11.8916 13.6007 11.8244 13.5746 11.7617C13.5486 11.699 13.5105 11.6421 13.4624 11.5942L12.255 10.37ZM16.2008 4.5134L11.9942 0.302463C11.8981 0.20678 11.7842 0.130965 11.6589 0.0793542C11.5335 0.0277433 11.3992 0.00134917 11.2637 0.00168157H11.0016V4.81418C11.0016 4.99652 11.074 5.17138 11.2029 5.30032C11.3319 5.42925 11.5067 5.50168 11.6891 5.50168H16.5016V5.23957C16.5016 5.10471 16.475 4.97117 16.4234 4.84657C16.3718 4.72197 16.2962 4.60876 16.2008 4.5134Z"/>
</svg>
