<?xml version="1.0"?>
<svg xmlns="http://www.w3.org/2000/svg" viewBox="0 0 587 87" version="1.1">
    <g>
        <g>
            <g transform="translate(112.000000, 33.000000)" fill-rule="nonzero" fill="#0C6658">
                <path d="M14.4022494,12.6885106 C11.3949968,12.3013171 9.29081686,12.1070314 8.09039944,12.1070314 C6.88998202,12.1070314 6.11316019,12.2158865 5.76200359,12.4342857 C5.41084701,12.651996 5.23423386,12.9971631 5.23423386,13.4697872 C5.23423386,13.9424113 5.47086787,14.2689767 5.943446,14.4508612 C6.41671402,14.6327457 7.62885964,14.8993718 9.58126269,15.2507396 C11.5336657,15.6021074 12.9224245,16.1766971 13.7468491,16.9758866 C14.5719636,17.775076 14.9838309,19.071692 14.9838309,20.8636677 C14.9838309,24.7872745 12.5457418,26.7494224 7.67094324,26.7494224 C6.07038668,26.7494224 4.12971187,26.5310233 1.84960868,26.0956028 L0.685755696,25.8778927 L0.83063366,21.8082269 C3.83857615,22.1967983 5.93033799,22.3897062 7.10660909,22.3897062 C8.28357007,22.3897062 9.08315845,22.2746504 9.50813381,22.044539 C9.93241927,21.8151166 10.144907,21.4692603 10.144907,21.0090375 C10.144907,20.5488146 9.92000116,20.209848 9.47156936,19.9914489 C9.02244768,19.7737386 7.8579048,19.5078015 5.97932055,19.1922594 C4.09935649,18.8774063 2.69817961,18.3441541 1.77716969,17.5931915 C0.854779987,16.842229 0.394619978,15.5042756 0.394619978,13.5786423 C0.394619978,11.6530091 1.05002029,10.2 2.35944112,9.21892603 C3.66886196,8.23785208 5.35427561,7.74731509 7.41706186,7.74731509 C8.84721433,7.74731509 10.8003073,7.97742654 13.274271,8.43764944 L14.4746884,8.65535968 L14.4022494,12.6885106 Z"/>
                <path d="M25.3170792,7.71011145 C26.5775175,7.71011145 28.191872,7.90439716 30.1560032,8.29159069 L31.1377239,8.50930091 L30.992846,12.3605674 C29.0763175,12.1676596 27.6585831,12.0698278 26.7361934,12.0698278 C25.0631978,12.0698278 23.9531567,12.4273961 23.4074498,13.141844 C22.8617426,13.8562918 22.5885442,15.2066464 22.5885442,17.1929077 C22.5885442,19.1784802 22.8617426,20.541236 23.4074498,21.2804863 C23.9531567,22.0190476 25.074926,22.3883283 26.7727578,22.3883283 L30.9935359,22.0975886 L31.1384138,25.9853698 C28.5430287,26.4938197 26.5664793,26.7480446 25.2080758,26.7480446 C22.5161053,26.7480446 20.5816395,25.9908815 19.4053684,24.4772442 C18.2290974,22.963607 17.6406168,20.5350355 17.6406168,17.1929077 C17.6406168,13.8500912 18.2463446,11.433921 19.4598702,9.94439716 C20.6720157,8.45556231 22.6251086,7.71011145 25.3170792,7.71011145 L25.3170792,7.71011145 Z"/>
                <path d="M39.6158444,26.3126241 L34.740356,26.3126241 L34.740356,0.879797365 L39.6158444,0.879797365 L39.6158444,9.01843972 C41.2895299,8.14622087 42.7935011,7.71011145 44.1270682,7.71011145 C46.5520494,7.71011145 48.2257349,8.42524823 49.1474347,9.85414387 C50.0691344,11.2830395 50.5306742,13.4870112 50.5306742,16.4667477 L50.5306742,26.3126241 L45.6551858,26.3126241 L45.6551858,16.5756028 C45.6551858,15.0495643 45.4730536,13.9176089 45.1094788,13.1783587 C44.7459042,12.4404863 44.0180649,12.0705167 42.9266508,12.0705167 C41.9808046,12.0705167 41.0342686,12.2158865 40.0891125,12.5066261 L39.6158444,12.651996 L39.6158444,26.3126241 Z"/>
                <path d="M65.5917734,8.14690982 L70.4672618,8.14690982 L70.4672618,26.313313 L65.6283379,26.313313 L65.6283379,25.2957244 C63.8815235,26.2643972 62.3658241,26.7487335 61.0805496,26.7487335 C58.5576034,26.7487335 56.8597716,26.0528876 55.9870543,24.6598176 C55.1136472,23.2667477 54.6769436,20.9353192 54.6769436,17.6655319 L54.6769436,8.14690982 L59.552432,8.14690982 L59.552432,17.7385613 C59.552432,19.531226 59.6979998,20.7541236 59.9891357,21.4079433 C60.2802713,22.061763 60.9832744,22.3890172 62.0995246,22.3890172 C63.1667923,22.3890172 64.1733492,22.219534 65.1191954,21.8798785 L65.5924634,21.7351976 L65.5924634,8.14690982 L65.5917734,8.14690982 Z"/>
                <polygon points="75.1971825 26.3126241 75.1971825 0.879797365 80.0726709 0.879797365 80.0726709 26.3126241"/>
                <path d="M100.26452,0.879797365 L100.26452,26.3126241 L95.4255957,26.3126241 L95.4255957,25.5499494 C93.727074,26.3491388 92.261047,26.7487335 91.0226854,26.7487335 C88.3790074,26.7487335 86.5362978,25.9860588 85.4917966,24.4600203 C84.4486753,22.9339818 83.9278045,20.5178116 83.9278045,17.2115096 C83.9278045,13.9052077 84.5521596,11.4945491 85.8022494,9.98091185 C87.0509595,8.46727456 88.9357527,7.71011145 91.4586991,7.71011145 C92.234831,7.71011145 93.3138268,7.83136779 94.6970665,8.07319149 L95.3876515,8.21856129 L95.3876515,0.879797365 L100.26452,0.879797365 Z M94.8791988,21.9529077 L95.3876515,21.8440527 L95.3876515,12.2882269 C94.0540842,12.0464032 92.865395,11.9251469 91.8229636,11.9251469 C89.8588323,11.9251469 88.8764218,13.6688956 88.8764218,17.1570821 C88.8764218,19.0462006 89.0944286,20.3910436 89.5318221,21.190233 C89.9678358,21.9894224 90.6894661,22.3890172 91.696023,22.3890172 C92.7025799,22.3890172 93.7636384,22.2436474 94.8791988,21.9529077 Z"/>
                <path d="M109.668479,21.7165958 C110.238333,22.2133333 111.056548,22.4613577 112.124506,22.4613577 C114.379773,22.4613577 116.393577,22.3890172 118.164537,22.2429585 L119.182822,22.1341033 L119.255951,25.731145 C116.466705,26.4090781 113.943759,26.7487335 111.689182,26.7487335 C108.946849,26.7487335 106.959261,26.0218845 105.72228,24.5688754 C104.485298,23.1158662 103.867152,20.7541236 103.867152,17.4843363 C103.867152,10.9688754 106.546704,7.71011145 111.907189,7.71011145 C117.195235,7.71011145 119.837533,10.4473354 119.837533,15.9217832 L119.473958,19.3004256 L108.777825,19.3004256 C108.801281,20.415157 109.098626,21.2205471 109.668479,21.7165958 L109.668479,21.7165958 Z M115.034483,15.5945289 C115.034483,14.1415198 114.804748,13.1294428 114.343898,12.5610537 C113.882358,11.9919757 113.076561,11.7074367 111.923746,11.7074367 C110.771621,11.7074367 109.960305,12.0043769 109.486347,12.5975684 C109.013079,13.1914488 108.764027,14.1904357 108.739881,15.5952178 L115.034483,15.5952178 L115.034483,15.5945289 Z"/>
                <path d="M128.20527,26.3126241 L123.331161,26.3126241 L123.331161,8.14690982 L128.169395,8.14690982 L128.169395,9.16449848 C129.818934,8.19582574 131.335324,7.7108004 132.717184,7.7108004 C135.142165,7.7108004 136.81516,8.42593718 137.73755,9.85483283 C138.65925,11.2837285 139.11941,13.4877001 139.11941,16.4674366 L139.11941,26.313313 L134.245301,26.313313 L134.245301,16.6121175 C134.245301,15.0619655 134.063169,13.9176089 133.699594,13.1790476 C133.33602,12.4411753 132.60818,12.0712057 131.516766,12.0712057 C130.522627,12.0712057 129.563673,12.2413779 128.641973,12.5796555 L128.20527,12.7250253 L128.20527,26.3126241 Z"/>
                <path d="M157.383002,13.8142655 L157.383002,21.3714286 C157.429915,21.9529077 157.52857,22.3580142 157.673448,22.5888146 C157.819016,22.8189261 158.122569,22.9828976 158.582729,23.0786626 L158.437852,26.7487335 C157.20087,26.7487335 156.21225,26.6633029 155.472683,26.4945086 C154.732425,26.3250254 153.988028,25.9860588 153.235353,25.47692 C151.489228,26.3250254 149.706539,26.7487335 147.887286,26.7487335 C144.126668,26.7487335 142.248084,24.7631611 142.248084,20.7899494 C142.248084,18.8526038 142.769645,17.4781357 143.812076,16.6665452 C144.854507,15.8542655 146.455064,15.3768186 148.615126,15.2314488 L152.508203,14.9407092 L152.508203,13.8142655 C152.508203,13.0639919 152.337799,12.5493414 151.999061,12.2703141 C151.658943,11.9919757 151.113236,11.8528065 150.36194,11.8528065 L143.5237,12.1435461 L143.377442,8.76490375 C145.971448,8.06285714 148.440582,7.7108004 150.780706,7.7108004 C153.12221,7.7108004 154.806934,8.19582574 155.837637,9.16449848 C156.86765,10.1324823 157.383002,11.6833232 157.383002,13.8142655 L157.383002,13.8142655 Z M149.197397,18.6100912 C147.838304,18.7313475 147.160137,19.4581966 147.160137,20.7899494 C147.160137,22.1223911 147.753447,22.7886119 148.942136,22.7886119 C149.864526,22.7886119 150.871082,22.6432421 151.962496,22.3525025 L152.507513,22.2078216 L152.507513,18.3193515 L149.197397,18.6100912 Z"/>
                <path d="M166.914592,26.3126241 L162.039794,26.3126241 L162.039794,8.14690982 L166.878717,8.14690982 L166.878717,9.16449848 C168.528257,8.19582574 170.044647,7.7108004 171.427195,7.7108004 C173.852177,7.7108004 175.525863,8.42593718 176.447562,9.85483283 C177.369262,11.2837285 177.829421,13.4877001 177.829421,16.4674366 L177.829421,26.313313 L172.954623,26.313313 L172.954623,16.6121175 C172.954623,15.0619655 172.772491,13.9176089 172.408916,13.1790476 C172.045341,12.4411753 171.317503,12.0712057 170.226089,12.0712057 C169.23126,12.0712057 168.272996,12.2413779 167.351296,12.5796555 L166.914592,12.7250253 L166.914592,26.3126241 Z"/>
                <path d="M196.093013,13.8142655 L196.093013,21.3714286 C196.140617,21.9529077 196.239272,22.3580142 196.384151,22.5888146 C196.529718,22.8189261 196.833271,22.9828976 197.293432,23.0786626 L197.148553,26.7487335 C195.910882,26.7487335 194.922952,26.6633029 194.182694,26.4945086 C193.442437,26.3257143 192.698041,25.9860588 191.946744,25.47692 C190.199931,26.3250254 188.417241,26.7487335 186.597299,26.7487335 C182.83737,26.7487335 180.958786,24.7631611 180.958786,20.7899494 C180.958786,18.8526038 181.478967,17.4781357 182.522088,16.6665452 C183.56521,15.8542655 185.165766,15.3768186 187.325827,15.2314488 L191.219596,14.9407092 L191.219596,13.8142655 C191.219596,13.0639919 191.048501,12.5493414 190.709073,12.2703141 C190.369644,11.9919757 189.823938,11.8528065 189.071952,11.8528065 L182.233022,12.1435461 L182.086765,8.76490375 C184.68215,8.06285714 187.151284,7.7108004 189.491408,7.7108004 C191.831533,7.7108004 193.517636,8.19582574 194.547649,9.16449848 C195.576973,10.1324823 196.093013,11.6833232 196.093013,13.8142655 L196.093013,13.8142655 Z M187.906718,18.6100912 C186.549006,18.7313475 185.870149,19.4581966 185.870149,20.7899494 C185.870149,22.1223911 186.464149,22.7886119 187.652837,22.7886119 C188.573157,22.7886119 189.581094,22.6432421 190.672508,22.3525025 L191.218906,22.2078216 L191.218906,18.3193515 L187.906718,18.6100912 Z"/>
                <polygon points="200.967812 26.3126241 200.967812 0.879797365 205.842611 0.879797365 205.842611 26.3126241"/>
                <polygon points="208.899536 8.14690982 213.701895 8.14690982 217.012702 22.170618 217.848856 22.170618 221.160352 8.14690982 225.962711 8.14690982 219.559794 33.9428167 214.793999 33.9428167 216.794006 26.3126241 213.374885 26.3126241"/>
                <path d="M241.570897,12.6885106 C238.562264,12.3013171 236.459465,12.1070314 235.258357,12.1070314 C234.05725,12.1070314 233.281807,12.2158865 232.930652,12.4342857 C232.578114,12.651996 232.402881,12.9971631 232.402881,13.4697872 C232.402881,13.9424113 232.638825,14.2689767 233.111404,14.4508612 C233.586052,14.6327457 234.796818,14.8993718 236.749221,15.2507396 C238.701624,15.6021074 240.091763,16.1766971 240.915497,16.9758866 C241.739231,17.775076 242.151789,19.071692 242.151789,20.8636677 C242.151789,24.7872745 239.713699,26.7494224 234.8389,26.7494224 C233.238344,26.7494224 231.298359,26.5310233 229.017566,26.0956028 L227.853024,25.8778927 L227.997901,21.8082269 C231.005154,22.1967983 233.097606,22.3897062 234.274567,22.3897062 C235.450837,22.3897062 236.251116,22.2746504 236.676092,22.044539 C237.098997,21.8151166 237.312175,21.4692603 237.312175,21.0090375 C237.312175,20.5488146 237.088648,20.209848 236.638838,19.9914489 C236.190405,19.7737386 235.025863,19.5078015 233.145208,19.1922594 C231.267314,18.8774063 229.864757,18.3441541 228.944437,17.5931915 C228.022048,16.842229 227.561888,15.5042756 227.561888,13.5786423 C227.561888,11.6530091 228.216599,10.2 229.526018,9.21892603 C230.83613,8.23785208 232.522232,7.74731509 234.584329,7.74731509 C236.013793,7.74731509 237.966196,7.97742654 240.440159,8.43764944 L241.641266,8.65535968 L241.570897,12.6885106 Z"/>
                <path d="M250.574027,21.7165958 C251.14388,22.2133333 251.962786,22.4613577 253.030055,22.4613577 C255.286701,22.4613577 257.299125,22.3890172 259.071464,22.2429585 L260.08975,22.1341033 L260.162879,25.731145 C257.372253,26.4090781 254.849307,26.7487335 252.59473,26.7487335 C249.852397,26.7487335 247.8655,26.0218845 246.628518,24.5688754 C245.390846,23.1158662 244.7727,20.7541236 244.7727,17.4843363 C244.7727,10.9688754 247.453632,7.71011145 252.813428,7.71011145 C258.100782,7.71011145 260.743771,10.4473354 260.743771,15.9217832 L260.380196,19.3004256 L249.684752,19.3004256 C249.70683,20.415157 250.004864,21.2205471 250.574027,21.7165958 L250.574027,21.7165958 Z M255.940032,15.5945289 C255.940032,14.1415198 255.710296,13.1294428 255.250136,12.5610537 C254.787906,11.9919757 253.98211,11.7074367 252.829294,11.7074367 C251.67855,11.7074367 250.865163,12.0043769 250.392586,12.5975684 C249.918627,13.1914488 249.670265,14.1904357 249.646119,15.5952178 L255.940032,15.5952178 L255.940032,15.5945289 Z"/>
                <polygon points="264.016633 18.8643162 264.016633 14.4315704 274.786585 14.4315704 274.786585 18.8643162"/>
                <polygon points="283.954601 26.3126241 279.079802 26.3126241 279.079802 0.879797365 283.954601 0.879797365 283.954601 15.340304 285.809728 15.0137386 289.41236 8.14690982 294.86943 8.14690982 290.1402 16.7581763 295.124692 26.313313 289.630366 26.313313 285.955986 19.228774 283.95529 19.5560284 283.95529 26.3126241"/>
                <path d="M298.472062,10.199311 C299.757336,8.54030396 301.903601,7.71011145 304.912233,7.71011145 C307.918795,7.71011145 310.065749,8.54030396 311.351713,10.199311 C312.636298,11.8583181 313.28066,14.1897467 313.28066,17.1935968 C313.28066,23.5643769 310.490725,26.7487335 304.912233,26.7487335 C299.332362,26.7487335 296.544495,23.563688 296.544495,17.1935968 C296.543805,14.1897467 297.186097,11.8583181 298.472062,10.199311 Z M302.23682,21.2990881 C302.734923,22.170618 303.625578,22.6067274 304.912233,22.6067274 C306.196818,22.6067274 307.086782,22.170618 307.585575,21.2990881 C308.082991,20.4268692 308.332042,19.0586019 308.332042,17.1935968 C308.332042,15.3285917 308.082301,13.9720365 307.585575,13.1239311 C307.086782,12.2765147 306.196818,11.8521175 304.912233,11.8521175 C303.625578,11.8521175 302.734923,12.2758257 302.23682,13.1239311 C301.739405,13.9720365 301.491733,15.3285917 301.491733,17.1935968 C301.491043,19.0586019 301.739405,20.4268692 302.23682,21.2990881 Z"/>
                <path d="M329.905751,12.6885106 C326.897119,12.3013171 324.793628,12.1070314 323.592521,12.1070314 C322.391415,12.1070314 321.615972,12.2158865 321.264815,12.4342857 C320.912279,12.651996 320.737046,12.9971631 320.737046,13.4697872 C320.737046,13.9424113 320.97299,14.2689767 321.446948,14.4508612 C321.920905,14.6327457 323.131671,14.8993718 325.084765,15.2507396 C327.035787,15.6021074 328.425926,16.1766971 329.250351,16.9758866 C330.074775,17.775076 330.486643,19.071692 330.486643,20.8636677 C330.486643,24.7872745 328.049243,26.7494224 323.173755,26.7494224 C321.572508,26.7494224 319.631834,26.5310233 317.35242,26.0956028 L316.188568,25.8778927 L316.332755,21.8082269 C319.339319,22.1967983 321.432459,22.3897062 322.608731,22.3897062 C323.785691,22.3897062 324.585281,22.2746504 325.010946,22.044539 C325.433851,21.8151166 325.647719,21.4692603 325.647719,21.0090375 C325.647719,20.5488146 325.422123,20.209848 324.973001,19.9914489 C324.52388,19.7737386 323.360026,19.5078015 321.480062,19.1922594 C319.600788,18.8774063 318.200301,18.3441541 317.279291,17.5931915 C316.356212,16.842229 315.896741,15.5042756 315.896741,13.5786423 C315.896741,11.6530091 316.550762,10.2 317.860872,9.21892603 C319.170983,8.23785208 320.856397,7.74731509 322.917804,7.74731509 C324.348646,7.74731509 326.300359,7.97742654 328.775703,8.43764944 L329.97612,8.65535968 L329.905751,12.6885106 Z"/>
                <path d="M344.095512,12.2882269 L339.620163,12.2882269 L339.620163,19.736535 C339.620163,20.4633839 339.638101,20.9773454 339.673286,21.2804863 C339.71123,21.5836271 339.842999,21.8433638 340.074805,22.061763 C340.30454,22.2794732 340.661906,22.3890172 341.14828,22.3890172 L343.91407,22.3166768 L344.131387,26.204458 C342.507374,26.567538 341.269702,26.7494224 340.420442,26.7494224 C338.237613,26.7494224 336.746061,26.2588855 335.945782,25.2785005 C335.145504,24.2974265 334.745365,22.48616 334.745365,19.846768 L334.745365,12.2882269 L332.599792,12.2882269 L332.599792,8.14622087 L334.745365,8.14622087 L334.745365,3.09548125 L339.620853,3.09548125 L339.620853,8.14622087 L344.096203,8.14622087 L344.095512,12.2882269 Z"/>
                <path d="M352.152796,21.7165958 C352.722651,22.2133333 353.541556,22.4613577 354.608824,22.4613577 C356.864091,22.4613577 358.877894,22.3890172 360.648856,22.2429585 L361.667829,22.1341033 L361.740269,25.731145 C358.950334,26.4090781 356.428076,26.7487335 354.17212,26.7487335 C351.431168,26.7487335 349.44289,26.0218845 348.207288,24.5688754 C346.968925,23.1158662 346.350779,20.7541236 346.350779,17.4843363 C346.350779,10.9688754 349.031711,7.71011145 354.392197,7.71011145 C359.678863,7.71011145 362.32116,10.4473354 362.32116,15.9217832 L361.957585,19.3004256 L351.262832,19.3004256 C351.286289,20.415157 351.582944,21.2205471 352.152796,21.7165958 L352.152796,21.7165958 Z M357.519491,15.5945289 C357.519491,14.1415198 357.289066,13.1294428 356.828906,12.5610537 C356.366676,11.9919757 355.560879,11.7074367 354.408063,11.7074367 C353.257319,11.7074367 352.444623,12.0043769 351.970665,12.5975684 C351.497396,13.1914488 351.249034,14.1904357 351.225578,15.5952178 L357.519491,15.5952178 L357.519491,15.5945289 Z"/>
                <path d="M370.688899,26.3126241 L365.812719,26.3126241 L365.812719,8.14690982 L370.652334,8.14690982 L370.652334,9.16449848 C372.302563,8.19582574 373.817572,7.7108004 375.200122,7.7108004 C377.627172,7.7108004 379.298788,8.42593718 380.221178,9.85483283 C381.142187,11.2837285 381.603038,13.4877001 381.603038,16.4674366 L381.603038,26.313313 L376.72755,26.313313 L376.72755,16.6121175 C376.72755,15.0619655 376.545416,13.9176089 376.181843,13.1790476 C375.818268,12.4411753 375.090429,12.0712057 373.999014,12.0712057 C373.004875,12.0712057 372.045921,12.2413779 371.125601,12.5796555 L370.688899,12.7250253 L370.688899,26.3126241 Z"/>
                <polygon points="386.152206 26.3126241 386.152206 0.879797365 391.026314 0.879797365 391.026314 26.3126241"/>
                <path d="M396.737957,10.199311 C398.02461,8.54030396 400.171563,7.71011145 403.178126,7.71011145 C406.184688,7.71011145 408.333022,8.54030396 409.618296,10.199311 C410.904261,11.8583181 411.545863,14.1897467 411.545863,17.1935968 C411.545863,23.5643769 408.757998,26.7487335 403.178126,26.7487335 C397.599635,26.7487335 394.809698,23.563688 394.809698,17.1935968 C394.809009,14.1897467 395.451991,11.8583181 396.737957,10.199311 Z M400.504093,21.2990881 C401.000127,22.170618 401.891473,22.6067274 403.177437,22.6067274 C404.463401,22.6067274 405.354055,22.170618 405.85147,21.2990881 C406.349574,20.4268692 406.597936,19.0586019 406.597936,17.1935968 C406.597936,15.3285917 406.348884,13.9720365 405.85147,13.1239311 C405.354055,12.2765147 404.463401,11.8521175 403.177437,11.8521175 C401.891473,11.8521175 401.000127,12.2758257 400.504093,13.1239311 C400.005988,13.9720365 399.757626,15.3285917 399.757626,17.1935968 C399.757626,19.0586019 400.007369,20.4268692 400.504093,21.2990881 Z"/>
                <path d="M428.172334,12.6885106 C425.164392,12.3013171 423.062282,12.1070314 421.860485,12.1070314 C420.659377,12.1070314 419.883936,12.2158865 419.5314,12.4342857 C419.180932,12.651996 419.004319,12.9971631 419.004319,13.4697872 C419.004319,13.9424113 419.240954,14.2689767 419.712841,14.4508612 C420.18611,14.6327457 421.398255,14.8993718 423.350658,15.2507396 C425.304441,15.6021074 426.691821,16.1766971 427.518314,16.9758866 C428.342739,17.775076 428.754605,19.071692 428.754605,20.8636677 C428.754605,24.7872745 426.316517,26.7494224 421.440339,26.7494224 C419.840472,26.7494224 417.899106,26.5310233 415.619003,26.0956028 L414.454461,25.8778927 L414.600028,21.8082269 C417.607971,22.1967983 419.700423,22.3897062 420.876694,22.3897062 C422.051586,22.3897062 422.852554,22.2746504 423.277529,22.044539 C423.702505,21.8151166 423.913613,21.4692603 423.913613,21.0090375 C423.913613,20.5488146 423.689397,20.209848 423.240275,19.9914489 C422.792532,19.7737386 421.625921,19.5078015 419.747337,19.1922594 C417.867372,18.8774063 416.467575,18.3441541 415.545876,17.5931915 C414.622795,16.842229 414.163326,15.5042756 414.163326,13.5786423 C414.163326,11.6530091 414.818036,10.2 416.128837,9.21892603 C417.437568,8.23785208 419.122982,7.74731509 421.185767,7.74731509 C422.61592,7.74731509 424.568323,7.97742654 427.042976,8.43764944 L428.243394,8.65535968 L428.172334,12.6885106 Z"/>
                <polygon points="432.464862 26.3126241 432.464862 22.170618 435.447968 22.170618 435.447968 26.3126241"/>
                <path d="M454.476653,0.22597771 L454.476653,26.3126241 L451.783304,26.3126241 L451.783304,25.0773253 C449.916447,26.1438298 448.072358,26.676393 446.253105,26.676393 C445.283113,26.676393 444.433851,26.5551367 443.706701,26.313313 C442.978863,26.0714893 442.299317,25.6353799 441.669442,25.0056738 C440.360021,23.6973454 439.704621,21.2818643 439.704621,17.7571632 C439.704621,14.232462 440.293791,11.6895238 441.470061,10.1269706 C442.645644,8.56441742 444.591838,7.78382978 447.309333,7.78382978 C448.71534,7.78382978 450.206892,7.94160081 451.782613,8.25576495 L451.782613,0.22597771 L454.476653,0.22597771 Z M445.016812,23.9873962 C445.453516,24.1582574 446.01716,24.24231 446.707056,24.24231 C447.39971,24.24231 448.176532,24.1272544 449.036831,23.8971429 C449.89713,23.6677204 450.570467,23.4424316 451.054775,23.2247215 L451.782613,22.8974671 L451.782613,10.5809929 C450.231039,10.2902533 448.78709,10.1448835 447.454212,10.1448835 C445.610813,10.1448835 444.324847,10.7325633 443.597009,11.9072341 C442.86917,13.0825937 442.505595,14.9048835 442.505595,17.3754813 C442.505595,20.1857346 442.93057,22.0748531 443.779141,23.0435259 C444.166862,23.5037488 444.580799,23.8186019 445.016812,23.9873962 L445.016812,23.9873962 Z"/>
                <path d="M472.12003,24.0604256 L473.17488,23.9515704 L473.248009,26.0949139 C470.482219,26.4821073 468.117259,26.676393 466.153817,26.676393 C463.533596,26.676393 461.678468,25.91923 460.587054,24.4055928 C459.495641,22.8919554 458.949933,20.5357244 458.949933,17.3389666 C458.949933,10.9688754 461.484608,7.78382978 466.554646,7.78382978 C469.003085,7.78382978 470.834756,8.46796353 472.047591,9.836231 C473.260427,11.2044985 473.866845,13.3540426 473.866845,16.2855522 L473.722656,18.3558662 L461.717102,18.3558662 C461.717102,20.3669301 462.080677,21.856454 462.808516,22.8251266 C463.536356,23.7937994 464.801624,24.2781357 466.609838,24.2781357 C468.415984,24.2781357 470.252485,24.2057953 472.12003,24.0604256 L472.12003,24.0604256 Z M471.13762,16.1760081 C471.13762,13.948612 470.780254,12.3736575 470.064832,11.4525228 C469.348721,10.5334549 468.184179,10.0725431 466.571894,10.0725431 C464.95823,10.0725431 463.745395,10.5568794 462.934077,11.5255522 C462.120692,12.4942249 461.703994,14.0450659 461.678468,16.1760081 L471.13762,16.1760081 Z"/>
            </g>
            <g>
                <circle fill="#FF8D02" cx="54.6851067" cy="23.8784719" r="23.4364743"/>
                <path d="M0,42.0729645 L0,81.319917 C0.717129756,82.5841094 1.34200276,83.243275 2.90180753,83.689684 C7.42904579,84.9871196 19.0756488,85.2564446 20.5742054,81.8461098 C21.1553852,79.9136499 20.8376602,75.3304376 20.8376602,71.8370494 C20.8376602,61.6522748 21.044049,53.1394927 20.5742054,44.6586708 C20.3784471,42.4628637 19.9491762,40.9746519 17.7950564,39.7278454 C15.0531089,38.4925749 2.46810571,37.6839088 0,42.0729645 Z" fill="#0C6658" fill-rule="nonzero"/>
                <path d="M101.284591,61.3008462 C101.284591,60.4232252 101.284591,59.5456041 101.284591,58.6679829 C98.5844172,49.9649062 88.756696,55.2923708 82.5574231,58.4039366 C78.5675566,60.4070784 74.6176364,63.2517488 70.4242344,64.4618023 C62.0250661,66.886658 53.5783429,65.2938326 47.4779844,62.3551315 C53.2131203,61.8859271 59.7690559,63.1729149 65.677292,62.6182278 C68.4678207,62.357031 72.1143399,61.3787305 72.2712715,58.9301294 C72.4263008,56.5242695 69.5378087,54.2675295 67.2599231,53.6615531 C63.0874453,52.5550285 55.6698127,54.2371357 51.1701563,53.3994063 C49.509535,53.0897694 47.1508059,51.6660096 44.8396316,50.765593 C38.585195,48.3274399 30.5284229,45.3364993 22.4202913,46.8143983 L22.4202913,76.8425294 C30.330594,77.6327683 35.1964239,79.9369987 42.4656848,82.3742021 C47.4332826,84.0392129 53.863673,87.5743926 58.8189064,86.8525396 C61.5885111,86.4469723 66.1728154,83.2185801 69.105058,81.5839632 C76.3495903,77.5444364 81.9782029,74.222963 89.1514026,70.2575212 C93.5359759,67.8326653 99.8531851,65.8000794 101.284591,61.3008462 L101.284591,61.3008462 Z" fill="#0C6658" fill-rule="nonzero"/>
                <path d="M49.7772193,24.6033318 L55.9652193,24.6033318 C56.4638885,24.6033318 56.7132193,24.8526627 56.7132193,25.3513318 L56.7132193,26.5753318 C56.7132193,27.074001 56.4638885,27.3233318 55.9652193,27.3233318 L49.8112193,27.3233318 C49.8338861,27.8446678 49.9472183,28.3773291 50.1512193,28.9213318 C50.3552204,29.4653346 50.6668839,29.952663 51.0862193,30.3833318 C51.5055548,30.8140007 52.0552159,31.1653305 52.7352193,31.4373318 C53.4152227,31.7093332 54.2312146,31.8453318 55.1832193,31.8453318 C56.1578909,31.8453318 56.9625495,31.7433329 57.5972193,31.5393318 C58.2318892,31.3353308 58.7532173,31.0690002 59.1612193,30.7403318 C59.5692214,30.4116635 59.8865515,30.0376673 60.1132193,29.6183318 C60.3398871,29.1989964 60.5325519,28.7853339 60.6912193,28.3773318 C60.7592197,28.1959976 60.8725519,28.0316659 61.0312193,27.8843318 C61.1898868,27.7369978 61.405218,27.6633318 61.6772193,27.6633318 L64.4312193,27.6633318 C64.6805539,27.6633318 64.9015517,27.748331 65.0942193,27.9183318 C65.286887,28.0883327 65.3718861,28.3093305 65.3492193,28.5813318 C65.3038858,29.4200027 65.0602215,30.2813274 64.6182193,31.1653318 C64.1762171,32.0493363 63.5358902,32.8596615 62.6972193,33.5963318 C61.8585485,34.3330022 60.8158922,34.9336629 59.5692193,35.3983318 C58.3225464,35.8630008 56.8605611,36.0953318 55.1832193,36.0953318 C53.6192115,36.0953318 52.2308921,35.8573342 51.0182193,35.3813318 C49.8055466,34.9053295 48.7742236,34.2706691 47.9242193,33.4773318 C47.0742151,32.6839945 46.4225549,31.7546705 45.9692193,30.6893318 C45.5158837,29.6239932 45.2665529,28.5020044 45.2212193,27.3233318 L43.0112193,27.3233318 C42.5125502,27.3233318 42.2632193,27.074001 42.2632193,26.5753318 L42.2632193,25.3513318 C42.2632193,24.8526627 42.5125502,24.6033318 43.0112193,24.6033318 L45.1872193,24.6033318 L45.1872193,23.5833318 L43.0112193,23.5833318 C42.5125502,23.5833318 42.2632193,23.334001 42.2632193,22.8353318 L42.2632193,21.6113318 C42.2632193,21.1126627 42.5125502,20.8633318 43.0112193,20.8633318 L45.2212193,20.8633318 C45.2665529,19.503325 45.5158837,18.2566708 45.9692193,17.1233318 C46.4225549,15.9899928 47.0742151,15.0153359 47.9242193,14.1993318 C48.7742236,13.3833278 49.8055466,12.7430008 51.0182193,12.2783318 C52.2308921,11.8136629 53.6192115,11.5813318 55.1832193,11.5813318 C56.8605611,11.5813318 58.3225464,11.8193295 59.5692193,12.2953318 C60.8158922,12.7713342 61.8585485,13.3719949 62.6972193,14.0973318 C63.5358902,14.8226688 64.1762171,15.6273274 64.6182193,16.5113318 C65.0602215,17.3953363 65.3038858,18.256661 65.3492193,19.0953318 C65.3718861,19.3673332 65.286887,19.588331 65.0942193,19.7583318 C64.9015517,19.9283327 64.6805539,20.0133318 64.4312193,20.0133318 L61.6772193,20.0133318 C61.405218,20.0133318 61.1898868,19.9396659 61.0312193,19.7923318 C60.8725519,19.6449978 60.7592197,19.4806661 60.6912193,19.2993318 C60.5325519,18.8913298 60.3398871,18.4776673 60.1132193,18.0583318 C59.8865515,17.6389964 59.5692214,17.2650002 59.1612193,16.9363318 C58.7532173,16.6076635 58.2318892,16.3413329 57.5972193,16.1373318 C56.9625495,15.9333308 56.1578909,15.8313318 55.1832193,15.8313318 C54.2312146,15.8313318 53.4152227,15.9616639 52.7352193,16.2223318 C52.0552159,16.4829998 51.5055548,16.8399962 51.0862193,17.2933318 C50.6668839,17.7466674 50.3552204,18.2793288 50.1512193,18.8913318 C49.9472183,19.5033349 49.8338861,20.1606617 49.8112193,20.8633318 L55.9652193,20.8633318 C56.4638885,20.8633318 56.7132193,21.1126627 56.7132193,21.6113318 L56.7132193,22.8353318 C56.7132193,23.334001 56.4638885,23.5833318 55.9652193,23.5833318 L49.7772193,23.5833318 L49.7772193,24.6033318 Z" fill="#FFFFFF"/>
            </g>
        </g>
    </g>
</svg>
