<?xml version="1.0"?>
<svg xmlns="http://www.w3.org/2000/svg" viewBox="0 0 9 12" fill="#ffffff">
  <path d="M3.06938 7.79688V7.21875C3.06938 6.71875 3.17615 6.28385 3.38969 5.91406C3.60324 5.54427 3.99386 5.15104 4.56157 4.73438C5.10844 4.34375 5.46782 4.02604 5.63969 3.78125C5.81678 3.53646 5.90532 3.26302 5.90532 2.96094C5.90532 2.6224 5.78032 2.36458 5.53032 2.1875C5.28032 2.01042 4.93136 1.92188 4.48344 1.92188C3.70219 1.92188 2.81157 2.17708 1.81157 2.6875L0.960007 0.976562C2.12147 0.325521 3.35324 0 4.65532 0C5.72824 0 6.5798 0.257812 7.21001 0.773438C7.84542 1.28906 8.16313 1.97656 8.16313 2.83594C8.16313 3.40885 8.03292 3.90365 7.77251 4.32031C7.51209 4.73698 7.0173 5.20573 6.28813 5.72656C5.78813 6.09635 5.47042 6.3776 5.33501 6.57031C5.2048 6.76302 5.13969 7.01562 5.13969 7.32812V7.79688H3.06938ZM2.81938 10.4688C2.81938 10.0312 2.93657 9.70052 3.17094 9.47656C3.40532 9.2526 3.74646 9.14062 4.19438 9.14062C4.62667 9.14062 4.96001 9.25521 5.19438 9.48438C5.43397 9.71354 5.55376 10.0417 5.55376 10.4688C5.55376 10.8802 5.43397 11.2057 5.19438 11.4453C4.9548 11.6797 4.62146 11.7969 4.19438 11.7969C3.75688 11.7969 3.41834 11.6823 3.17876 11.4531C2.93917 11.2188 2.81938 10.8906 2.81938 10.4688Z"/>
</svg>
