<?xml version="1.0"?>
<svg xmlns="http://www.w3.org/2000/svg" viewBox="0 0 19 20" fill="#DCE1D7">
  <mask id="trash" style="mask-type:alpha" x="0" y="0">
    <path d="M18.9999 20H0.679932V10V0H18.9999V20Z"/>
  </mask>
  <g mask="url(#trash)">
    <path fill-rule="evenodd" clip-rule="evenodd" d="M12.6394 6.6806C12.6361 6.68394 12.6234 6.67794 12.6194 6.6806C12.6138 6.68269 12.6047 6.67794 12.5994 6.6806C12.5944 6.6831 12.584 6.67752 12.5794 6.6806C12.5762 6.68269 12.5822 6.69777 12.5794 6.7006C12.5761 6.70385 12.5634 6.69802 12.5594 6.7006C12.5564 6.7026 12.5617 6.7176 12.5594 6.72052C12.5581 6.72218 12.5417 6.72052 12.5394 6.72052C12.5356 6.72052 12.5226 6.7186 12.5194 6.72052C12.5164 6.72252 12.5217 6.73768 12.5194 6.7406C12.5181 6.74218 12.5018 6.7406 12.4994 6.7406C12.496 6.7406 12.482 6.7386 12.4794 6.7406C12.4763 6.74285 12.4816 6.75727 12.4794 6.7606C12.4772 6.76377 12.4622 6.75785 12.4594 6.7606C12.4561 6.76393 12.4621 6.77652 12.4594 6.7806C12.4554 6.78318 12.4427 6.77727 12.4394 6.7806C12.4361 6.78393 12.4421 6.7966 12.4394 6.80051C12.4367 6.80451 12.4427 6.81726 12.4394 6.8206C12.4367 6.82335 12.4215 6.81743 12.4194 6.8206C12.4168 6.8246 12.4227 6.83726 12.4194 6.8406C12.4173 6.84268 12.4005 6.8381 12.3994 6.8406C12.3975 6.84501 12.3994 6.85576 12.3994 6.86059C12.3994 6.86484 12.4014 6.87684 12.3994 6.88051C12.3979 6.88351 12.3818 6.87809 12.3794 6.88051C12.3761 6.88384 12.3821 6.89659 12.3794 6.90059C12.3767 6.90459 12.3828 6.91726 12.3794 6.92059C12.3761 6.92393 12.3634 6.91793 12.3594 6.92059V7.00059C12.3554 7.00326 12.3428 6.99726 12.3394 7.00059C12.337 7.00301 12.3403 7.017 12.3394 7.02059C12.338 7.02625 12.3394 7.03467 12.3394 7.0405V7.06059V7.10058V7.18058V7.20058V7.24058V7.26058V7.30049V7.32058V7.36057V7.44057V7.46057V7.50057V7.58056V7.60056V7.64056V7.72047V7.74056V7.78055V7.86055V7.88047V7.92055V8.00054V8.02054V8.06054V8.14054V8.16054V8.20054V8.28053V8.30045V8.34053V8.42053V8.44053V8.48052V8.56052V8.58052V8.62052V8.70051V8.72043V8.76051V8.84051V8.86051V8.90051V8.9805V9.0005V9.04042V9.12049V9.1405V9.18049V9.26049V9.28049V9.32049V9.40048V9.42048V9.46048V9.54039V9.56048V9.60047V9.68047V9.70047V9.74047V9.82046V9.84046V9.88038V9.96046V9.98046V10.0205V10.1005V10.1205V10.1604V10.2404V10.2604V10.3004V10.3804V10.4004V10.4404V10.5204V10.5403V10.5804V10.6604V10.6804V10.7203V10.8003V10.8204V10.8604V10.9404V10.9604V11.0004V11.0804V11.1004V11.1404V11.2203V11.2404V11.2804V11.3604V11.3803V11.4204V11.5004V11.5204V11.5604V11.6404V11.6604V11.7004V11.7804V11.8003V11.8404V11.9204V11.9404V11.9804V12.0604V12.0804V12.1204V12.2004V12.2203V12.2604V12.3404V12.3604V12.4004V12.4803V12.5003V12.5403V12.6203V12.6403V12.6803V12.7603V12.7803V12.8203V12.9003V12.9203V12.9603V13.0402V13.0603V13.1003V13.1803V13.2003V13.2403V13.3203V13.3403V13.3802V13.4603V13.4803V13.5203V13.6003V13.6203V13.6603V13.7403V13.7603V13.8002V13.8802V13.9003V13.9403V14.0203V14.0402V14.0803V14.1603V14.1803V14.2202V14.3002V14.3203V14.3603V14.4403V14.4603V14.5003V14.5803V14.6003V14.6403V14.7202V14.7402V14.7802V14.8602V14.8802V14.9202V15.0002V15.0202V15.0602V15.1402V15.1602V15.2002V15.2802V15.3001V15.3402V15.4202V15.4402V15.4802V15.5602V15.5802V15.6202V15.7002V15.7201V15.7602V15.8402V15.8602V15.9002V15.9802V16.0002V16.0401V16.1202V16.2802V16.3001V16.3402C12.3434 16.3428 12.3561 16.3368 12.3594 16.3402C12.3623 16.343 12.3578 16.3563 12.3594 16.3602C12.3614 16.3651 12.3592 16.3748 12.3594 16.3801C12.3596 16.3831 12.3575 16.3983 12.3594 16.4002C12.3628 16.4035 12.3754 16.3974 12.3794 16.4002V16.4402C12.3821 16.4442 12.3761 16.4568 12.3794 16.4602C12.3819 16.4627 12.3978 16.4573 12.3994 16.4602C12.4016 16.464 12.3992 16.4757 12.3994 16.4802C12.3996 16.4831 12.3975 16.4983 12.3994 16.5002C12.4028 16.5035 12.4154 16.4975 12.4194 16.5002C12.4221 16.5043 12.4161 16.5166 12.4194 16.5202C12.4226 16.5235 12.4362 16.5168 12.4394 16.5202C12.4427 16.5235 12.4361 16.5368 12.4394 16.5401C12.4427 16.5435 12.4561 16.5368 12.4594 16.5401C12.4625 16.5433 12.456 16.5573 12.4594 16.5602C12.4632 16.5633 12.476 16.5568 12.4794 16.5602C12.4818 16.5627 12.4765 16.5785 12.4794 16.5802C12.4832 16.5822 12.4949 16.5799 12.4994 16.5802C12.5023 16.5803 12.5175 16.5782 12.5194 16.5802C12.5219 16.5827 12.5164 16.5985 12.5194 16.6002C12.5229 16.6021 12.5352 16.6002 12.5394 16.6002C12.5447 16.6002 12.5544 16.5984 12.5594 16.6002C12.5614 16.6008 12.5578 16.6182 12.5594 16.6202C12.5607 16.6217 12.577 16.6202 12.5794 16.6202C12.5843 16.6202 12.5948 16.6183 12.5994 16.6202C12.6018 16.6212 12.5974 16.6381 12.5994 16.6402C12.6022 16.643 12.6155 16.6386 12.6194 16.6402C12.6243 16.6421 12.6341 16.6399 12.6394 16.6402C12.6423 16.6402 12.6575 16.6382 12.6594 16.6402C12.6627 16.6435 12.6567 16.6562 12.6594 16.6602H12.6994H12.7194H12.7594H12.7994H12.8394H12.8594H12.8994H12.9394H12.9594H12.9994H13.0194H13.0594H13.0794H13.1194H13.1394H13.1794H13.1994H13.2394H13.2593H13.2994H13.3194H13.3594H13.4394H13.4594H13.4994H13.5394H13.5794H13.6594H13.6994C13.7019 16.6557 13.6961 16.6441 13.6994 16.6402C13.7006 16.6386 13.717 16.6402 13.7194 16.6402C13.7244 16.6402 13.7346 16.642 13.7394 16.6402C13.7432 16.6387 13.7565 16.643 13.7593 16.6402C13.7614 16.6381 13.7569 16.6212 13.7593 16.6202C13.7638 16.6182 13.7744 16.6202 13.7794 16.6202C13.7836 16.6202 13.7957 16.6222 13.7994 16.6202C13.8019 16.6188 13.7976 16.6027 13.7994 16.6002C13.8014 16.5969 13.8165 16.6029 13.8194 16.6002C13.8224 16.5972 13.816 16.5827 13.8194 16.5802C13.8219 16.5782 13.8359 16.5802 13.8394 16.5802C13.8442 16.5802 13.8549 16.582 13.8594 16.5802C13.8619 16.5791 13.8573 16.5623 13.8594 16.5602C13.8628 16.5568 13.8758 16.5634 13.8794 16.5602C13.8828 16.5571 13.8762 16.5433 13.8794 16.5401C13.8825 16.537 13.8965 16.5435 13.8994 16.5401C13.9027 16.5362 13.8964 16.5245 13.8994 16.5202C13.9015 16.517 13.9165 16.5229 13.9193 16.5202C13.9227 16.5168 13.9167 16.5042 13.9193 16.5002C13.9239 16.4976 13.9353 16.5034 13.9393 16.5002C13.9409 16.4988 13.9393 16.4825 13.9393 16.4802C13.9393 16.4755 13.9374 16.4643 13.9393 16.4602C13.9405 16.4575 13.9571 16.4624 13.9593 16.4602C13.9618 16.4578 13.9584 16.4437 13.9593 16.4402C13.9608 16.4345 13.9593 16.426 13.9593 16.4202V16.4002C13.9639 16.3975 13.9753 16.4034 13.9793 16.4002C13.9809 16.3988 13.9793 16.3826 13.9793 16.3801V16.3602C13.982 16.3562 13.976 16.3435 13.9793 16.3402C13.9814 16.3381 13.9983 16.3427 13.9993 16.3402C14.0013 16.3358 13.9993 16.325 13.9993 16.3202V16.3001C13.9996 16.2935 13.9989 16.2868 13.9993 16.2802C13.9995 16.2773 13.9974 16.262 13.9993 16.2602C14.0027 16.2568 14.0153 16.2628 14.0193 16.2602V16.2201V16.2002V16.1602V16.0802V16.0602V16.0202V16.0002V15.9602V15.9402V15.9002V15.8202V15.8001V15.7602V15.6802V15.6602V15.6202V15.5401V15.5202V15.4802V15.4602V15.4202V15.4002V15.3602V15.2802V15.2602V15.2201V15.1402V15.1202V15.0802V15.0002V14.9802V14.9402V14.9202V14.8802V14.8602V14.8202V14.7402V14.7202V14.6802V14.6003V14.5803V14.5402V14.4603V14.4403V14.4003V14.3203V14.3002V14.2603V14.1803V14.1603V14.1203V14.0402V14.0203V13.9803V13.9003V13.8802V13.8403V13.8203V13.7803V13.7603V13.7202V13.6403V13.6203V13.5803V13.5003V13.4803V13.4403V13.3603V13.3403V13.3002V13.2202V13.2003V13.1603V13.0803V13.0603V13.0203V12.9403V12.9203V12.8802V12.8002V12.7803V12.7403V12.7203V12.6803V12.6603V12.6203V12.5403V12.5203V12.4803V12.4004V12.3803V12.3404V12.2604V12.2404V12.2004V12.1204V12.1004V12.0604V11.9804V11.9604V11.9204V11.8404V11.8204V11.7804V11.7004V11.6804V11.6404V11.6204V11.5804V11.5604V11.5204V11.4404V11.4204V11.3803V11.3003V11.2804V11.2404V11.1604V11.1404V11.1004V11.0204V11.0004V10.9604V10.8803V10.8604V10.8204V10.7404V10.7203V10.6804V10.6004V10.5804V10.5403V10.5204V10.4804V10.4604V10.4204V10.3404V10.3204V10.2804V10.2004V10.1804V10.1405V10.0605V10.0404V10.0005V9.92046V9.90046V9.86046V9.78047V9.76047V9.72039V9.64047V9.62047V9.58048V9.50048V9.48048V9.44048V9.42048V9.3804V9.36049V9.32049V9.24049V9.22041V9.18049V9.1005V9.0805V9.04042V8.9605V8.9405V8.90051V8.82051V8.80043V8.76051V8.68051V8.66052V8.62052V8.54044V8.52052V8.48052V8.40053V8.38044V8.34053V8.32053V8.28053V8.26053V8.22045V8.14054V8.12054V8.08054V8.00054V7.98055V7.94055V7.86055V7.84055V7.80047V7.72047V7.70056V7.66056V7.58056V7.56056V7.52057V7.44057V7.42057V7.38049V7.30049V7.2205V7.14058V7.06059C14.0153 7.05792 14.0027 7.06392 13.9993 7.06059C13.9969 7.05809 14.0003 7.04409 13.9993 7.0405C13.9979 7.03492 13.9993 7.02642 13.9993 7.02059V7.00059C13.9967 6.99659 14.0027 6.98392 13.9993 6.98059C13.9973 6.97842 13.9804 6.98309 13.9793 6.98059C13.9775 6.97617 13.9793 6.96542 13.9793 6.96059V6.92059C13.9753 6.91793 13.9627 6.92393 13.9593 6.92059C13.956 6.91726 13.962 6.90459 13.9593 6.90059C13.9567 6.89659 13.9627 6.88384 13.9593 6.88051C13.9568 6.87801 13.9411 6.88368 13.9393 6.88051C13.9373 6.87718 13.9393 6.86459 13.9393 6.86059C13.9393 6.85584 13.9413 6.84485 13.9393 6.8406C13.9383 6.83843 13.9217 6.8421 13.9193 6.8406C13.9161 6.83851 13.9222 6.82343 13.9193 6.8206C13.916 6.81726 13.9033 6.82326 13.8994 6.8206C13.899 6.81401 13.8997 6.80726 13.8994 6.80051C13.8992 6.79768 13.9013 6.78252 13.8994 6.7806C13.8966 6.77777 13.8814 6.78376 13.8794 6.7806C13.8767 6.77652 13.8827 6.76393 13.8794 6.7606C13.876 6.75727 13.8627 6.76393 13.8594 6.7606C13.856 6.75727 13.8627 6.74393 13.8594 6.7406C13.856 6.73727 13.8434 6.74327 13.8394 6.7406C13.8367 6.73602 13.8426 6.7246 13.8394 6.72052C13.8381 6.71902 13.8217 6.72052 13.8194 6.72052C13.8151 6.72052 13.803 6.7226 13.7994 6.72052C13.7964 6.71902 13.8018 6.7031 13.7994 6.7006C13.796 6.69727 13.7834 6.70319 13.7794 6.7006C13.7767 6.6966 13.7827 6.68394 13.7794 6.6806C13.7765 6.67777 13.7632 6.68219 13.7593 6.6806C13.7544 6.67869 13.7447 6.68085 13.7394 6.6806C13.7364 6.68044 13.7212 6.68244 13.7194 6.6806C13.716 6.67727 13.722 6.6646 13.7194 6.6606H13.6394H13.5594H13.5394H13.4994H13.4794H13.4394H13.3594H13.1994H13.1794H13.1394H13.0594H12.8994H12.8194H12.6594H12.6394C12.6367 6.6646 12.6427 6.67727 12.6394 6.6806ZM9.23956 6.7006C9.23556 6.70319 9.22289 6.69727 9.21956 6.7006C9.21747 6.70269 9.22206 6.71952 9.21956 6.72052C9.21514 6.72252 9.20439 6.72052 9.19956 6.72052C9.19581 6.72052 9.18256 6.7186 9.17956 6.72052C9.17631 6.72277 9.18239 6.73785 9.17956 6.7406C9.17622 6.74393 9.16289 6.73727 9.15956 6.7406C9.15623 6.74393 9.16289 6.75727 9.15956 6.7606C9.15631 6.76385 9.14273 6.75718 9.13956 6.7606C9.13623 6.76402 9.14298 6.77718 9.13956 6.7806C9.13748 6.78276 9.12064 6.7781 9.11956 6.7806C9.11764 6.78502 9.11956 6.79576 9.11956 6.80051C9.11956 6.80451 9.12156 6.81735 9.11956 6.8206C9.11764 6.82368 9.10223 6.81785 9.09956 6.8206C9.09614 6.82393 9.10289 6.83718 9.09956 6.8406C9.09631 6.84401 9.08323 6.8376 9.07956 6.8406C9.07798 6.84193 9.07956 6.85826 9.07956 6.86059V6.88051C9.07556 6.88326 9.0629 6.87726 9.05956 6.88051C9.05623 6.88384 9.06223 6.89659 9.05956 6.90059C9.0569 6.90459 9.0629 6.91726 9.05956 6.92059C9.05748 6.92268 9.04065 6.91809 9.03956 6.92059C9.03765 6.92501 9.03956 6.93576 9.03956 6.94059C9.03956 6.94642 9.04098 6.95492 9.03956 6.96059C9.03865 6.96409 9.04198 6.97809 9.03956 6.98059C9.03623 6.98392 9.02356 6.97784 9.01956 6.98059V7.02059C9.01931 7.02717 9.0199 7.03392 9.01956 7.0405C9.0194 7.04342 9.02148 7.05867 9.01956 7.06059C9.01623 7.06392 9.00357 7.05792 8.99957 7.06059V7.08059V7.12058V7.20058V7.2205V7.26058V7.34057V7.36057V7.40057V7.48057V7.50057V7.54048V7.62056V7.64056V7.68056V7.76056V7.78055V7.82055V7.90055V7.92055V7.96055V8.04046V8.06054V8.10054V8.18054V8.20054V8.24053V8.32053V8.34053V8.38044V8.46052V8.48052V8.52052V8.60052V8.62052V8.66052V8.74051V8.76051V8.80043V8.88042V8.90051V8.9405V9.0205V9.04042V9.0805V9.16049V9.18049V9.22041V9.3004V9.32049V9.36049V9.44048V9.46048V9.50048V9.58048V9.60047V9.64047V9.72039V9.74047V9.78047V9.86046V9.88038V9.92046V10.0005V10.0205V10.0605V10.1405V10.1604V10.2004V10.2804V10.3004V10.3404V10.4204V10.4404V10.4804V10.5604V10.5804V10.6204V10.7004V10.7203V10.7604V10.8404V10.8604V10.9004V10.9804V11.0004V11.0403V11.1204V11.1404V11.1804V11.2604V11.2804V11.3204V11.4004V11.5604V11.5804V11.6204V11.7004V11.7203V11.7604V11.8404V11.8604V11.9004V11.9804V12.0004V12.0403V12.1204V12.1404V12.1804V12.2604V12.2804V12.3204V12.4004V12.4204V12.4603V12.5403V12.5603V12.6003V12.6803V12.7003V12.7403V12.8203V12.8403V12.8802V12.9603V12.9803V13.0203V13.1003V13.1203V13.1603V13.2403V13.2603V13.3002V13.3802V13.4003V13.4403V13.5203V13.5402V13.5803V13.6603V13.8203V13.8403V13.8802V13.9603V13.9803V14.0203V14.1003V14.1203V14.1603V14.2403V14.2603V14.3002V14.3802V14.4003V14.4403V14.5203V14.5402V14.5803V14.6603V14.6802V14.7202V14.8002V14.8202V14.8602V14.9402V14.9602V15.0002V15.0802V15.1002V15.1402V15.2201V15.2402V15.2802V15.3602V15.3801V15.4202V15.5002V15.5202V15.5602V15.6402V15.6602V15.7002V15.7802V15.8001V15.8402V15.9202V16.0802V16.1602V16.2002V16.2201V16.2602C9.00407 16.2628 9.01556 16.2569 9.01956 16.2602C9.02115 16.2615 9.01956 16.2778 9.01956 16.2802V16.3001V16.3202C9.01956 16.325 9.01765 16.3358 9.01956 16.3402C9.02065 16.3427 9.03748 16.3381 9.03956 16.3402C9.0429 16.3435 9.0369 16.3562 9.03956 16.3602C9.03981 16.3668 9.03923 16.3735 9.03956 16.3801C9.03973 16.3831 9.03765 16.3983 9.03956 16.4002C9.0429 16.4035 9.05556 16.3974 9.05956 16.4002V16.4202V16.4402C9.05956 16.4458 9.05798 16.4548 9.05956 16.4602C9.06015 16.4622 9.07781 16.4584 9.07956 16.4602C9.0829 16.4634 9.0769 16.4762 9.07956 16.4802C9.08223 16.4841 9.07623 16.4968 9.07956 16.5002C9.0829 16.5035 9.09556 16.4975 9.09956 16.5002C9.10198 16.5052 9.09648 16.5155 9.09956 16.5202C9.10164 16.5233 9.11681 16.5173 9.11956 16.5202C9.12298 16.5235 9.11631 16.5366 9.11956 16.5401C9.12264 16.5435 9.13631 16.5369 9.13956 16.5401C9.14289 16.5435 9.13623 16.5568 9.13956 16.5602C9.14289 16.5635 9.15623 16.5568 9.15956 16.5602C9.16256 16.5633 9.15623 16.5776 9.15956 16.5802C9.16223 16.5822 9.17597 16.58 9.17956 16.5802C9.18248 16.5803 9.19764 16.5782 9.19956 16.5802C9.20231 16.5829 9.19639 16.5982 9.19956 16.6002C9.20422 16.6032 9.21489 16.5971 9.21956 16.6002C9.22281 16.6022 9.21672 16.6173 9.21956 16.6202C9.22264 16.6232 9.23547 16.6182 9.23956 16.6202C9.24456 16.6227 9.25489 16.6171 9.25955 16.6202C9.2628 16.6223 9.25672 16.6373 9.25955 16.6402C9.26239 16.643 9.27564 16.6386 9.27955 16.6402C9.28447 16.6421 9.29422 16.6399 9.29955 16.6402C9.30247 16.6402 9.31764 16.6382 9.31955 16.6402C9.32288 16.6435 9.31688 16.6562 9.31955 16.6602H9.33955H9.37955H9.39955H9.43955H9.47954H9.51954H9.53954H9.57954H9.59954H9.63954H9.65954H9.69954H9.71953H9.75953H9.77953H9.81953H9.83953H9.87953H9.89953H9.93952H9.95952H9.99952H10.0795H10.0995H10.1395H10.1795H10.1995H10.2395H10.2795H10.2995H10.3395C10.3422 16.6562 10.3362 16.6435 10.3395 16.6402C10.3421 16.6376 10.3558 16.6412 10.3595 16.6402C10.3648 16.6386 10.3739 16.6402 10.3795 16.6402H10.3995C10.4047 16.6402 10.4148 16.642 10.4195 16.6402C10.4217 16.6393 10.4178 16.6222 10.4195 16.6202C10.4208 16.6186 10.4371 16.6202 10.4395 16.6202C10.4429 16.6202 10.4569 16.6222 10.4595 16.6202C10.4625 16.6179 10.4573 16.6034 10.4595 16.6002C10.4617 16.5969 10.4767 16.6029 10.4795 16.6002C10.4828 16.5968 10.4768 16.5842 10.4795 16.5802H10.4995H10.5195C10.5245 16.5802 10.5349 16.582 10.5395 16.5802C10.5419 16.5792 10.5375 16.5622 10.5395 16.5602C10.5428 16.5568 10.5562 16.5635 10.5595 16.5602C10.5628 16.5568 10.5562 16.5435 10.5595 16.5401C10.5629 16.5368 10.576 16.5434 10.5795 16.5401C10.5828 16.5369 10.5762 16.5234 10.5795 16.5202C10.582 16.5177 10.5979 16.523 10.5995 16.5202C10.6016 16.5163 10.5992 16.5048 10.5995 16.5002C10.5997 16.4973 10.5976 16.482 10.5995 16.4802C10.602 16.4776 10.6178 16.4832 10.6195 16.4802C10.6222 16.4753 10.6164 16.4648 10.6195 16.4602C10.6217 16.4569 10.6367 16.463 10.6395 16.4602C10.6423 16.4573 10.6379 16.4441 10.6395 16.4402C10.6414 16.4353 10.6392 16.4254 10.6395 16.4202C10.6397 16.4173 10.6376 16.4021 10.6395 16.4002C10.6428 16.3968 10.6555 16.4028 10.6595 16.4002V16.3801C10.6595 16.3735 10.6591 16.3668 10.6595 16.3602C10.6599 16.3535 10.6592 16.3468 10.6595 16.3402C10.6597 16.3373 10.6576 16.322 10.6595 16.3202C10.6628 16.3168 10.6755 16.3228 10.6795 16.3202V16.3001V16.2602V16.1802V16.1002V16.0802V16.0401V16.0202V15.9802V15.9602V15.9202V15.8402V15.8202V15.7802V15.7002V15.6802V15.6402V15.5602V15.5401V15.5002V15.4202V15.4002V15.3602V15.2802V15.2602V15.2201V15.1402V15.1202V15.0802V15.0002V14.9802V14.9402V14.9202V14.8802V14.8602V14.8202V14.7402V14.7202V14.6802V14.6003V14.5803V14.5402V14.4603V14.4403V14.4003V14.3203V14.3002V14.2603V14.1803V14.1603V14.1203V14.0402V14.0203V13.9803V13.9003V13.8802V13.8403V13.8203V13.7803V13.7603V13.7202V13.6403V13.6203V13.5803V13.5003V13.4803V13.4403V13.3603V13.3403V13.3002V13.2202V13.2003V13.1603V13.0803V13.0603V13.0203V12.9403V12.9203V12.8802V12.8002V12.7803V12.7403V12.6603V12.6403V12.6003V12.5203V12.5003V12.4603V12.3803V12.3604V12.3204V12.2404V12.2203V12.1804V12.1004V12.0804V12.0403V11.9604V11.9404V11.9004V11.8204V11.8003V11.7604V11.6804V11.6604V11.6204V11.6004V11.5604V11.5403V11.5004V11.4204V11.4004V11.3604V11.2804V11.2604V11.2203V11.1404V11.1204V11.0804V11.0004V10.9804V10.9404V10.8604V10.8404V10.8003V10.7203V10.7004V10.6604V10.5804V10.5604V10.5204V10.4404V10.4204V10.3804V10.3004V10.2804V10.2404V10.1604V10.1405V10.1005V10.0205V10.0005V9.96046V9.88038V9.86046V9.82046V9.74047V9.72039V9.68047V9.60047V9.58048V9.54039V9.46048V9.44048V9.40048V9.3804V9.34049V9.32049V9.28049V9.20049V9.18049V9.1405V9.0605V9.04042V9.0005V8.9205V8.90051V8.86051V8.78051V8.76051V8.72043V8.64052V8.62052V8.58052V8.50052V8.48052V8.44053V8.36053V8.34053V8.30045V8.22045V8.20054V8.16054V8.08054V8.06054V8.02054V7.94055V7.92055V7.88047V7.80047V7.78055V7.74056V7.66056V7.64056V7.60056V7.52057V7.50057V7.46057V7.38049V7.36057V7.32058V7.24058V7.16058V7.08059V7.06059C10.6795 7.05392 10.6798 7.04717 10.6795 7.0405C10.6792 7.03392 10.6798 7.02717 10.6795 7.02059C10.6793 7.01767 10.6814 7.00242 10.6795 7.00059C10.6762 6.99726 10.6635 7.00326 10.6595 7.00059V6.92059C10.6555 6.91793 10.6428 6.92393 10.6395 6.92059C10.6362 6.91726 10.6422 6.90459 10.6395 6.90059C10.6368 6.89659 10.6428 6.88384 10.6395 6.88051C10.6369 6.87801 10.6212 6.88368 10.6195 6.88051C10.6175 6.87718 10.6195 6.86459 10.6195 6.86059C10.6195 6.85584 10.6214 6.84485 10.6195 6.8406C10.6185 6.83843 10.6017 6.8421 10.5995 6.8406C10.5962 6.83851 10.6023 6.82343 10.5995 6.8206C10.5962 6.81726 10.5835 6.82326 10.5795 6.8206C10.5792 6.81401 10.5798 6.80726 10.5795 6.80051C10.5793 6.79768 10.5814 6.78252 10.5795 6.7806C10.5762 6.77727 10.5635 6.78318 10.5595 6.7806C10.557 6.7756 10.5626 6.76518 10.5595 6.7606C10.5573 6.75735 10.5422 6.76335 10.5395 6.7606C10.5365 6.7576 10.5428 6.7431 10.5395 6.7406C10.5369 6.7386 10.5229 6.7406 10.5195 6.7406C10.5146 6.7406 10.5039 6.74243 10.4995 6.7406C10.497 6.73952 10.5016 6.72268 10.4995 6.72052C10.4962 6.71718 10.4835 6.72327 10.4795 6.72052C10.4755 6.71793 10.4628 6.72393 10.4595 6.72052C10.4562 6.71718 10.4628 6.70394 10.4595 6.7006C10.4562 6.69727 10.4428 6.70394 10.4395 6.7006C10.4371 6.6981 10.4424 6.68219 10.4395 6.6806C10.4358 6.6786 10.4238 6.6806 10.4195 6.6806C10.4137 6.6806 10.4052 6.68202 10.3995 6.6806C10.3959 6.67969 10.3819 6.68302 10.3795 6.6806C10.3762 6.67727 10.3822 6.6646 10.3795 6.6606H10.2995H10.2195H10.1395H9.49954H9.41955H9.37955H9.29955C9.29697 6.6651 9.3028 6.6766 9.29955 6.6806C9.29822 6.68219 9.28189 6.6806 9.27955 6.6806C9.27297 6.6806 9.26614 6.6811 9.25955 6.6806C9.25289 6.68002 9.24614 6.68102 9.23956 6.6806V6.7006ZM5.8997 6.7006C5.8957 6.70319 5.88304 6.69727 5.8797 6.7006C5.87729 6.7031 5.88262 6.71902 5.8797 6.72052C5.87579 6.72268 5.8642 6.72043 5.8597 6.72052C5.85679 6.72068 5.84162 6.71868 5.8397 6.72052C5.83637 6.72393 5.84237 6.7366 5.8397 6.7406C5.8347 6.74302 5.82429 6.73752 5.81971 6.7406C5.81654 6.74268 5.82246 6.75785 5.81971 6.7606C5.81646 6.76385 5.80287 6.75718 5.79971 6.7606C5.79646 6.7641 5.80304 6.77718 5.79971 6.7806C5.79762 6.78276 5.78079 6.7781 5.77971 6.7806C5.77779 6.78502 5.77971 6.79576 5.77971 6.80051V6.8206C5.77571 6.82326 5.76304 6.81726 5.75971 6.8206C5.75637 6.82393 5.76304 6.83726 5.75971 6.8406C5.75637 6.84393 5.74304 6.83726 5.73971 6.8406C5.73638 6.84393 5.74229 6.85651 5.73971 6.86059C5.73713 6.86459 5.74304 6.87726 5.73971 6.88051C5.73721 6.88309 5.72129 6.87768 5.71971 6.88051C5.71763 6.88443 5.71996 6.89609 5.71971 6.90059C5.71954 6.90351 5.72163 6.91868 5.71971 6.92059C5.71638 6.92393 5.70371 6.91793 5.69971 6.92059V7.00059C5.69571 7.00326 5.68304 6.99726 5.67971 7.00059C5.67713 7.00317 5.6808 7.01684 5.67971 7.02059C5.67805 7.02592 5.67971 7.035 5.67971 7.0405V7.08059V7.10058V7.14058V7.2205V7.24058V7.28058V7.36057V7.38049V7.42057V7.50057V7.52057V7.56056V7.64056V7.66056V7.70056V7.78055V7.80047V7.84055V7.92055V7.94055V7.98055V8.06054V8.08054V8.12054V8.20054V8.22045V8.26053V8.34053V8.36053V8.40053V8.48052V8.50052V8.54044V8.62052V8.64052V8.68051V8.76051V8.78051V8.82051V8.90051V8.9205V8.9605V9.04042V9.0605V9.1005V9.18049V9.34049V9.36049V9.40048V9.48048V9.50048V9.54039V9.62047V9.64047V9.68047V9.76047V9.78047V9.82046V9.90046V9.92046V9.96046V10.0404V10.0605V10.1005V10.1804V10.2004V10.2404V10.3204V10.4804V10.5004V10.5403V10.6204V10.6404V10.6804V10.7604V10.7804V10.8204V10.9004V10.9204V10.9604V11.0403V11.0604V11.1004V11.1804V11.2004V11.2404V11.3204V11.3404V11.3803V11.4604V11.6204V11.6404V11.6804V11.7604V11.7804V11.8204V11.9004V11.9204V11.9604V12.0403V12.0604V12.1004V12.1804V12.2004V12.2404V12.3204V12.3404V12.3803V12.4603V12.4803V12.5203V12.6003V12.6203V12.6603V12.7403V12.7603V12.8002V12.8802V12.9003V12.9403V13.0203V13.0402V13.0803V13.1603V13.1803V13.2202V13.3002V13.3203V13.3603V13.4403V13.4603V13.5003V13.5803V13.6003V13.6403V13.7202V13.8802V13.9003V13.9403V14.0203V14.0402V14.0803V14.1603V14.1803V14.2202V14.3002V14.3203V14.3603V14.4403V14.4603V14.5003V14.5803V14.6003V14.6403V14.7202V14.7402V14.7802V14.8602V15.0202V15.0402V15.0802V15.1602V15.1802V15.2201V15.3001V15.3202V15.3602V15.4402V15.4602V15.5002V15.5802V15.6002V15.6402V15.7201V15.7402V15.7802V15.8602V15.8801V15.9202V16.0002V16.1602V16.3202C5.68421 16.3228 5.69571 16.3169 5.69971 16.3202C5.70129 16.3214 5.69971 16.3378 5.69971 16.3402C5.69971 16.3459 5.69821 16.3547 5.69971 16.3602C5.70129 16.3659 5.69938 16.3742 5.69971 16.3801C5.69988 16.3831 5.69779 16.3983 5.69971 16.4002C5.70304 16.4035 5.71571 16.3974 5.71971 16.4002V16.4202C5.71971 16.426 5.71829 16.4345 5.71971 16.4402C5.72063 16.4438 5.71729 16.4578 5.71971 16.4602C5.72304 16.4634 5.73571 16.4575 5.73971 16.4602C5.73996 16.4668 5.73938 16.4736 5.73971 16.4802C5.73988 16.4831 5.73779 16.4983 5.73971 16.5002C5.74304 16.5035 5.75571 16.4975 5.75971 16.5002C5.76221 16.5052 5.75663 16.5155 5.75971 16.5202C5.76187 16.5233 5.77687 16.5173 5.77971 16.5202C5.78312 16.5235 5.77654 16.5365 5.77971 16.5401C5.78271 16.5435 5.79646 16.5369 5.79971 16.5401C5.80304 16.5435 5.79637 16.5568 5.79971 16.5602C5.80304 16.5635 5.81637 16.5568 5.81971 16.5602C5.82246 16.563 5.81654 16.578 5.81971 16.5802C5.82271 16.5821 5.83596 16.5802 5.8397 16.5802C5.84454 16.5802 5.85529 16.5782 5.8597 16.5802C5.8622 16.5812 5.85762 16.5981 5.8597 16.6002C5.86287 16.6032 5.8757 16.598 5.8797 16.6002C5.88262 16.6017 5.87729 16.6177 5.8797 16.6202C5.88304 16.6234 5.8957 16.6175 5.8997 16.6202C5.9037 16.6228 5.91637 16.6168 5.9197 16.6202C5.92137 16.6219 5.9177 16.6396 5.9197 16.6402C5.92503 16.6417 5.93412 16.6402 5.9397 16.6402H5.9597H5.9997C6.00236 16.6441 5.99636 16.6568 5.9997 16.6602C6.00228 16.6627 6.01603 16.659 6.0197 16.6602C6.02503 16.6617 6.03411 16.6602 6.0397 16.6602H6.07969H6.11969H6.13969H6.17969H6.21969H6.23969H6.27969H6.29968H6.33968H6.35968H6.39968H6.41968H6.45968H6.47968H6.51968H6.53967H6.57967H6.59967H6.63967H6.65967H6.69967H6.71967H6.75966H6.77966H6.81966H6.83966H6.87966H6.91966H6.95966H6.97965C6.98549 16.6602 6.99399 16.6615 6.99965 16.6602C7.00324 16.6592 7.01724 16.6626 7.01965 16.6602C7.02299 16.6568 7.01699 16.6441 7.01965 16.6402H7.05965H7.07965C7.08523 16.6402 7.0944 16.6417 7.09965 16.6402C7.10165 16.6396 7.09798 16.6219 7.09965 16.6202C7.10298 16.6168 7.11565 16.6228 7.11965 16.6202C7.12365 16.6175 7.13631 16.6234 7.13965 16.6202C7.14206 16.6177 7.13673 16.6017 7.13965 16.6002C7.14365 16.598 7.15648 16.6032 7.15965 16.6002C7.16173 16.5981 7.15715 16.5812 7.15965 16.5802C7.16406 16.5782 7.17473 16.5802 7.17965 16.5802C7.18331 16.5802 7.19664 16.5821 7.19964 16.5802C7.20281 16.578 7.19689 16.563 7.19964 16.5602C7.20298 16.5568 7.21631 16.5635 7.21964 16.5602C7.22298 16.5568 7.21631 16.5435 7.21964 16.5401C7.22289 16.5369 7.23664 16.5435 7.23964 16.5401C7.24298 16.5363 7.23681 16.5244 7.23964 16.5202C7.24181 16.517 7.25681 16.5229 7.25964 16.5202C7.26298 16.5168 7.25698 16.5042 7.25964 16.5002C7.26414 16.4976 7.27564 16.5034 7.27964 16.5002C7.28122 16.4988 7.27964 16.4825 7.27964 16.4802C7.27964 16.4755 7.27773 16.4643 7.27964 16.4602C7.28081 16.4577 7.29731 16.4621 7.29964 16.4602C7.30122 16.4589 7.29964 16.4425 7.29964 16.4402V16.4202C7.30214 16.4151 7.29656 16.4048 7.29964 16.4002C7.30172 16.397 7.31681 16.403 7.31964 16.4002C7.32222 16.3975 7.31847 16.3838 7.31964 16.3801C7.32122 16.3748 7.31964 16.3658 7.31964 16.3602C7.31964 16.3543 7.31822 16.3458 7.31964 16.3402C7.32056 16.3366 7.31722 16.3226 7.31964 16.3202C7.32297 16.3168 7.33564 16.3228 7.33964 16.3202V16.3001V16.2602V16.1802V16.1002V16.0802V16.0401V16.0202V15.9802V15.9602V15.9202V15.8402V15.8202V15.7802V15.7002V15.6802V15.6402V15.5602V15.5401V15.5002V15.4202V15.4002V15.3602V15.2802V15.2602V15.2201V15.1402V15.1202V15.0802V15.0002V14.9802V14.9402V14.8602V14.8402V14.8002V14.7202V14.7002V14.6603V14.5803V14.5603V14.5203V14.4403V14.4203V14.3802V14.3002V14.2803V14.2403V14.1603V14.1403V14.1003V14.0203V14.0003V13.9603V13.8802V13.8603V13.8203V13.8002V13.7603V13.7403V13.7003V13.6203V13.6003V13.5603V13.4803V13.4603V13.4203V13.3403V13.3203V13.2803V13.2003V13.1803V13.1403V13.0603V13.0402V13.0003V12.9203V12.9003V12.8603V12.7803V12.7603V12.7203V12.6403V12.6203V12.5803V12.5003V12.4803V12.4403V12.3604V12.3404V12.3003V12.2203V12.2004V12.1604V12.0804V12.0604V12.0204V11.9404V11.9204V11.8803V11.8003V11.7804V11.7404V11.6604V11.6404V11.6004V11.5804V11.5403V11.5204V11.4804V11.4004V11.3803V11.3404V11.2604V11.2404V11.2004V11.1204V11.1004V11.0604V10.9804V10.9604V10.9204V10.8404V10.8204V10.7804V10.7004V10.6804V10.6404V10.5604V10.5403V10.5004V10.4204V10.4004V10.3604V10.2804V10.2604V10.2204V10.1405V10.1205V10.0805V10.0005V9.98046V9.94046V9.86046V9.84046V9.80038V9.72039V9.70047V9.66047V9.58048V9.56048V9.52048V9.44048V9.42048V9.3804V9.3004V9.28049V9.24049V9.16049V9.1405V9.1005V9.0205V9.0005V8.9605V8.88042V8.86051V8.82051V8.74051V8.72043V8.68051V8.60052V8.58052V8.54044V8.46052V8.44053V8.40053V8.32053V8.30045V8.26053V8.18054V8.16054V8.12054V8.04046V8.02054V7.98055V7.90055V7.88047V7.84055V7.76056V7.74056V7.70056V7.62056V7.60056V7.56056V7.48057V7.46057V7.42057V7.34057V7.32058V7.28058V7.20058V7.12058V7.0405C7.33931 7.03392 7.33997 7.02717 7.33964 7.02059C7.33947 7.01767 7.34156 7.00242 7.33964 7.00059C7.33631 6.99726 7.32364 7.00326 7.31964 7.00059V6.92059C7.31564 6.91793 7.30297 6.92393 7.29964 6.92059C7.29631 6.91726 7.30231 6.90459 7.29964 6.90059C7.29697 6.89659 7.30297 6.88384 7.29964 6.88051C7.29706 6.87801 7.28139 6.88368 7.27964 6.88051C7.27764 6.87718 7.27964 6.86459 7.27964 6.86059C7.27964 6.85584 7.28156 6.84485 7.27964 6.8406C7.27864 6.83843 7.26189 6.8421 7.25964 6.8406C7.25639 6.83851 7.26248 6.82343 7.25964 6.8206C7.25631 6.81726 7.24364 6.82326 7.23964 6.8206V6.80051C7.23964 6.79576 7.24156 6.78502 7.23964 6.7806C7.23856 6.7781 7.22173 6.78276 7.21964 6.7806C7.21623 6.77718 7.22264 6.76443 7.21964 6.7606C7.21706 6.75727 7.20264 6.7636 7.19964 6.7606C7.19631 6.75727 7.20298 6.74393 7.19964 6.7406C7.19631 6.73727 7.18298 6.74393 7.17965 6.7406C7.17681 6.73785 7.1829 6.72277 7.17965 6.72052C7.17665 6.7186 7.1634 6.72052 7.15965 6.72052C7.15481 6.72052 7.14406 6.72252 7.13965 6.72052C7.13715 6.71952 7.14173 6.70269 7.13965 6.7006C7.13631 6.69727 7.12365 6.70319 7.11965 6.7006C7.11698 6.6966 7.12298 6.68394 7.11965 6.6806C7.11682 6.67777 7.10357 6.68219 7.09965 6.6806C7.09473 6.67869 7.08498 6.68085 7.07965 6.6806C7.07673 6.68044 7.06148 6.68244 7.05965 6.6806C7.05632 6.67727 7.06232 6.6646 7.05965 6.6606H7.01965H6.93966H6.85966H6.77966H6.73967H6.71967H6.63967H6.61967H6.53967H6.51968H6.43968H6.41968H6.33968H6.31968H6.23969H6.21969H6.13969H6.11969H6.0397H6.0197H5.9797H5.9597C5.95712 6.6651 5.96295 6.6766 5.9597 6.6806C5.95837 6.68219 5.94203 6.6806 5.9397 6.6806C5.93312 6.6806 5.9262 6.6811 5.9197 6.6806C5.91303 6.68002 5.90637 6.68102 5.8997 6.6806V6.7006ZM12.1194 1.76082C12.1163 1.75765 12.1023 1.76415 12.0994 1.76082C12.0961 1.75682 12.1023 1.74515 12.0994 1.74082C12.0973 1.73765 12.0822 1.74357 12.0794 1.74082C12.0763 1.73774 12.0828 1.72357 12.0794 1.72074C12.077 1.7189 12.0627 1.72074 12.0594 1.72074C12.0547 1.72074 12.0437 1.72274 12.0394 1.72074C12.0372 1.71982 12.0409 1.70316 12.0394 1.70082C12.0373 1.69757 12.0223 1.70357 12.0194 1.70082C12.0168 1.69816 12.0225 1.68266 12.0194 1.68082C12.0145 1.67791 12.0047 1.68316 11.9994 1.68082C11.9928 1.68049 11.9861 1.68116 11.9794 1.68082C11.9765 1.68066 11.9614 1.68266 11.9594 1.68082C11.9561 1.67749 11.9621 1.66482 11.9594 1.66082H11.9394H11.8994H11.8594H11.7794H11.7594H11.7194H11.6794H11.6594H11.6195H11.5995H11.5595H11.5395H11.4995H11.4795H11.4395H11.4195H11.3795H11.3595H11.3195H11.2995H11.2195H11.1995H11.1595H11.1395H11.0995H11.0795H11.0395H11.0195H10.9795H10.9595H10.9195H10.8995H10.8595H10.8395H10.7595H10.7395H10.6995H10.6795H10.6395H10.6195H10.5795H10.5595H10.5195H10.4995H10.4595H10.4395H10.3995H10.3795H10.2995H10.2795H10.2395H10.2195H10.1795H10.1595H10.1195H10.0995H10.0595H10.0395H9.99952H9.97952H9.93952H9.91953H9.83953H9.81953H9.77953H9.75953H9.71953H9.69954H9.65954H9.63954H9.59954H9.57954H9.53954H9.51954H9.47954H9.45955H9.37955H9.35955H9.31955H9.29955H9.25955H9.23956H9.19956H9.17956H9.13956H9.11956H9.07956H9.05956H9.01956H8.99957H8.91957H8.89957H8.85957H8.83957H8.79957H8.77958H8.73958H8.71958H8.67958H8.65958H8.61958H8.59958H8.55959H8.53959H8.49959H8.47959H8.43959H8.41959H8.37959H8.35959H8.3196H8.2996H8.2596H8.2396H8.1996H8.1796H8.1396H8.1196H8.07961H8.05961H8.01961H7.97961H7.93961H7.91961H7.87961H7.83962H7.75962H7.73962C7.73695 1.66482 7.74295 1.67749 7.73962 1.68082C7.73629 1.68416 7.72362 1.67816 7.71962 1.68082C7.71562 1.68349 7.70296 1.67749 7.69962 1.68082C7.69704 1.68332 7.70262 1.69916 7.69962 1.70082C7.69454 1.70366 7.68479 1.69799 7.67962 1.70082C7.67462 1.70349 7.66429 1.69766 7.65963 1.70082C7.65646 1.70299 7.66237 1.71799 7.65963 1.72074C7.65629 1.72415 7.64296 1.7174 7.63963 1.72074C7.63629 1.72415 7.64229 1.73682 7.63963 1.74082C7.63754 1.74399 7.62238 1.73807 7.61963 1.74082C7.61621 1.74424 7.62288 1.75724 7.61963 1.76082C7.61671 1.76407 7.60338 1.75832 7.59963 1.76082C7.59638 1.7629 7.60246 1.77799 7.59963 1.78082C7.59663 1.78374 7.58213 1.77749 7.57963 1.78082C7.57754 1.78357 7.57979 1.79715 7.57963 1.80073C7.57946 1.80373 7.58154 1.8189 7.57963 1.82082C7.57629 1.82415 7.56363 1.81807 7.55963 1.82082C7.55938 1.82748 7.55996 1.83415 7.55963 1.84082C7.55946 1.84373 7.56146 1.8589 7.55963 1.86082C7.5563 1.86415 7.54363 1.85815 7.53963 1.86082V1.88073C7.53963 1.88565 7.54155 1.8964 7.53963 1.90081C7.53855 1.90331 7.52171 1.89865 7.51963 1.90081C7.51638 1.90406 7.52213 1.91673 7.51963 1.92081C7.51771 1.9239 7.5023 1.91815 7.49963 1.92081C7.4963 1.92415 7.5023 1.93681 7.49963 1.94081C7.49696 1.94481 7.50296 1.95739 7.49963 1.96081C7.4968 1.96364 7.4818 1.95756 7.47963 1.96081C7.47655 1.96539 7.48205 1.97581 7.47963 1.98081C7.47563 1.98348 7.46297 1.97748 7.45963 1.98081C7.45722 1.98323 7.46055 1.99723 7.45963 2.00081C7.45822 2.00648 7.45963 2.01489 7.45963 2.02081C7.45963 2.02631 7.46122 2.03547 7.45963 2.04072C7.45905 2.04281 7.44138 2.03914 7.43963 2.04072C7.43722 2.04322 7.44055 2.05731 7.43963 2.06081C7.43822 2.06647 7.43963 2.07489 7.43963 2.08081V2.1008C7.43505 2.10339 7.42364 2.09755 7.41964 2.1008C7.41805 2.10214 7.41964 2.11839 7.41964 2.1208V2.1408C7.41514 2.14339 7.40364 2.13747 7.39964 2.1408C7.39805 2.14205 7.39964 2.15839 7.39964 2.1608V2.1808C7.39505 2.18338 7.38364 2.17755 7.37964 2.1808C7.37805 2.18213 7.37964 2.19847 7.37964 2.2008C7.37964 2.20597 7.38139 2.21605 7.37964 2.22072C7.37814 2.22463 7.38247 2.23805 7.37964 2.2408C7.37747 2.24288 7.36072 2.23822 7.35964 2.2408C7.35772 2.24513 7.35964 2.25588 7.35964 2.2608C7.35964 2.26588 7.36147 2.27605 7.35964 2.2808C7.35772 2.28588 7.36255 2.29638 7.35964 2.30071C7.35747 2.30405 7.34247 2.29796 7.33964 2.30071C7.33656 2.30396 7.34172 2.3168 7.33964 2.32079C7.33756 2.32488 7.34272 2.33771 7.33964 2.34079C7.33756 2.34288 7.32072 2.33829 7.31964 2.34079C7.31772 2.34521 7.31964 2.35596 7.31964 2.36079V2.38071C7.31564 2.38346 7.30297 2.37746 7.29964 2.38071C7.29706 2.38338 7.30081 2.39712 7.29964 2.40079C7.29806 2.40612 7.29964 2.41512 7.29964 2.42079V2.46079C7.29564 2.46346 7.28297 2.45737 7.27964 2.46079C7.27631 2.46404 7.28222 2.47679 7.27964 2.48079C7.27664 2.48545 7.28272 2.49612 7.27964 2.50079C7.27747 2.50395 7.26248 2.49804 7.25964 2.50079C7.25648 2.50395 7.26173 2.5167 7.25964 2.52079C7.25756 2.52479 7.26281 2.53762 7.25964 2.5407C7.25714 2.54329 7.24123 2.53787 7.23964 2.5407C7.23748 2.54462 7.23989 2.55628 7.23964 2.56078C7.23948 2.5637 7.24156 2.57887 7.23964 2.58078C7.23748 2.58287 7.22073 2.57828 7.21964 2.58078C7.21773 2.5852 7.21964 2.59587 7.21964 2.60078C7.21964 2.60695 7.22081 2.6147 7.21964 2.62078C7.21881 2.62536 7.22214 2.63703 7.21964 2.64078C7.21756 2.64403 7.20239 2.63795 7.19964 2.64078C7.19681 2.64361 7.20114 2.65686 7.19964 2.66078C7.19781 2.66536 7.19964 2.67561 7.19964 2.68078C7.19964 2.68553 7.20156 2.69644 7.19964 2.70078C7.19864 2.70303 7.1819 2.69928 7.17965 2.70078C7.1764 2.70294 7.18248 2.71794 7.17965 2.72069C7.17631 2.72411 7.16365 2.71811 7.15965 2.72069V2.74078C7.15965 2.75411 7.15965 2.76744 7.15965 2.78077C7.15565 2.78336 7.14298 2.77744 7.13965 2.78077C7.13706 2.78336 7.14073 2.79711 7.13965 2.80069C7.13798 2.80611 7.13965 2.81511 7.13965 2.82077V2.86077C7.13515 2.86335 7.12365 2.85744 7.11965 2.86077C7.11806 2.8621 7.11965 2.87835 7.11965 2.88069C7.11965 2.88494 7.12165 2.89719 7.11965 2.90077C7.11798 2.90369 7.10215 2.89827 7.09965 2.90077C7.09632 2.9041 7.10232 2.91677 7.09965 2.92077C7.09698 2.92477 7.10298 2.93743 7.09965 2.94077C7.0974 2.94293 7.0809 2.9381 7.07965 2.94077C7.07757 2.94518 7.0799 2.95585 7.07965 2.96077C7.07948 2.96368 7.08157 2.97885 7.07965 2.98077C7.07782 2.98252 7.06032 2.9786 7.05965 2.98077C7.05798 2.98585 7.05965 2.99527 7.05965 3.00077C7.05965 3.0066 7.06107 3.0151 7.05965 3.02076C7.05873 3.02426 7.06207 3.03826 7.05965 3.04068C7.05632 3.0441 7.04365 3.0381 7.03965 3.04068C7.03932 3.04735 7.03999 3.0541 7.03965 3.06076C7.03949 3.06368 7.04157 3.07885 7.03965 3.08076C7.03632 3.0841 7.02365 3.0781 7.01965 3.08076V3.12076C7.01565 3.12343 7.00299 3.11743 6.99965 3.12076C6.99632 3.12409 7.0029 3.13734 6.99965 3.14076C6.9964 3.14418 6.9834 3.13768 6.97965 3.14076C6.97807 3.14201 6.97965 3.15834 6.97965 3.16076C6.97965 3.16517 6.98165 3.17684 6.97965 3.18076C6.97824 3.18351 6.96199 3.17842 6.95966 3.18076C6.95682 3.18359 6.96124 3.19684 6.95966 3.20076C6.95766 3.20567 6.95991 3.21542 6.95966 3.22067C6.95949 3.22367 6.96157 3.23884 6.95966 3.24075C6.95632 3.24409 6.94366 3.238 6.93966 3.24075V3.26075C6.93966 3.26659 6.93824 3.27509 6.93966 3.28075C6.94057 3.28425 6.93724 3.29825 6.93966 3.30067C6.94299 3.304 6.95566 3.29809 6.95966 3.30067C6.96174 3.30633 6.95699 3.31542 6.95966 3.32075C6.96099 3.3235 6.97732 3.31842 6.97965 3.32075C6.98174 3.32283 6.97715 3.33967 6.97965 3.34075C6.98407 3.34258 6.99482 3.34075 6.99965 3.34075H7.01965H7.03965H7.07965H7.11965H7.19964H7.23964H7.87961H8.1996H8.35959H8.43959H8.47959H8.49959H8.53959H9.17956H9.49954H9.65954H9.73953H9.77953H9.79953H9.83953H10.4795H10.7995H10.9595H11.0395H11.0795H11.0995H11.1395H11.7794H12.0994H12.2594H12.3394H12.3794H12.3994H12.4394H12.4594H12.4994H12.5394H12.5794H12.5994H12.6394H12.6594C12.6656 3.34075 12.6733 3.34192 12.6794 3.34075C12.684 3.33983 12.6957 3.34325 12.6994 3.34075C12.7026 3.33867 12.6967 3.32358 12.6994 3.32075C12.7018 3.31833 12.7179 3.32358 12.7194 3.32075C12.7222 3.3155 12.7172 3.30625 12.7194 3.30067C12.7234 3.29809 12.7361 3.304 12.7394 3.30067C12.7418 3.29825 12.7385 3.28425 12.7394 3.28075C12.7408 3.27509 12.7394 3.26659 12.7394 3.26075V3.24075C12.7354 3.238 12.7227 3.24409 12.7194 3.24075C12.7168 3.23809 12.7206 3.22442 12.7194 3.22067C12.7177 3.21542 12.7194 3.20634 12.7194 3.20076V3.18076C12.7194 3.17542 12.7211 3.16576 12.7194 3.16076C12.7187 3.15876 12.7013 3.16226 12.6994 3.16076C12.6978 3.15942 12.6994 3.14309 12.6994 3.14076C12.6994 3.13609 12.7013 3.12484 12.6994 3.12076C12.6982 3.11826 12.6817 3.12268 12.6794 3.12076C12.6778 3.11951 12.6794 3.10309 12.6794 3.10076V3.08076C12.6749 3.07818 12.6634 3.08401 12.6594 3.08076C12.6578 3.07943 12.6594 3.0631 12.6594 3.06076V3.04068C12.6554 3.0381 12.6427 3.0441 12.6394 3.04068C12.6366 3.03793 12.641 3.02468 12.6394 3.02076C12.6375 3.01585 12.6397 3.00601 12.6394 3.00077C12.6392 2.99785 12.6413 2.9826 12.6394 2.98077C12.6361 2.97743 12.6234 2.98343 12.6194 2.98077C12.6192 2.97418 12.6197 2.96735 12.6194 2.96077C12.6192 2.95785 12.6213 2.94268 12.6194 2.94077C12.6172 2.93852 12.6007 2.94343 12.5994 2.94077C12.5973 2.93635 12.5997 2.9256 12.5994 2.92077C12.5992 2.91785 12.6013 2.90269 12.5994 2.90077C12.5961 2.89744 12.5834 2.90344 12.5794 2.90077V2.86077C12.5767 2.85677 12.5827 2.84411 12.5794 2.84077C12.5773 2.83869 12.5605 2.84327 12.5594 2.84077C12.5575 2.83636 12.5594 2.82561 12.5594 2.82077V2.80069C12.5592 2.79411 12.5597 2.78736 12.5594 2.78077C12.5592 2.77786 12.5612 2.76261 12.5594 2.76078C12.5561 2.75744 12.5434 2.76344 12.5394 2.76078C12.5391 2.75411 12.5397 2.74744 12.5394 2.74078C12.5392 2.73786 12.5413 2.72269 12.5394 2.72069C12.5367 2.71794 12.5214 2.72394 12.5194 2.72069C12.5163 2.71611 12.5225 2.70544 12.5194 2.70078C12.5172 2.69753 12.5022 2.70353 12.4994 2.70078C12.4961 2.69744 12.502 2.68478 12.4994 2.68078C12.4975 2.67778 12.4823 2.68311 12.4794 2.68078C12.4778 2.67945 12.4794 2.66311 12.4794 2.66078C12.4794 2.65611 12.4814 2.64486 12.4794 2.64078C12.4782 2.63828 12.4617 2.6427 12.4594 2.64078C12.4578 2.63945 12.4594 2.6232 12.4594 2.62078V2.60078C12.4591 2.59412 12.4597 2.58745 12.4594 2.58078C12.4592 2.57787 12.4613 2.5627 12.4594 2.56078C12.4561 2.55745 12.4434 2.56345 12.4394 2.56078C12.4392 2.55403 12.4397 2.54737 12.4394 2.5407C12.4392 2.53787 12.4413 2.5227 12.4394 2.52079C12.4372 2.51854 12.4207 2.52345 12.4194 2.52079C12.4173 2.51637 12.4197 2.50562 12.4194 2.50079C12.4192 2.49787 12.4213 2.48262 12.4194 2.48079C12.4161 2.47745 12.4034 2.48345 12.3994 2.48079C12.3992 2.4742 12.3997 2.46737 12.3994 2.46079C12.3993 2.45787 12.4013 2.44271 12.3994 2.44079C12.3961 2.43746 12.3834 2.44337 12.3794 2.44079V2.42079C12.3794 2.41421 12.3798 2.40737 12.3794 2.40079C12.379 2.39412 12.3798 2.38738 12.3794 2.38071C12.3793 2.37779 12.3813 2.36271 12.3794 2.36079C12.3761 2.35746 12.3634 2.36346 12.3594 2.36079C12.3592 2.35413 12.3598 2.34746 12.3594 2.34079C12.3593 2.33788 12.3613 2.32263 12.3594 2.32079C12.3572 2.31855 12.3407 2.32346 12.3394 2.32079C12.3373 2.31638 12.3397 2.30571 12.3394 2.30071C12.3393 2.29788 12.3413 2.28271 12.3394 2.2808C12.3361 2.27746 12.3234 2.28338 12.3194 2.2808V2.2608V2.22072C12.3154 2.21813 12.3028 2.22413 12.2994 2.22072C12.2966 2.21788 12.3009 2.20472 12.2994 2.2008C12.2974 2.19588 12.2997 2.18605 12.2994 2.1808C12.2993 2.17788 12.3013 2.16264 12.2994 2.1608C12.2961 2.15747 12.2834 2.16347 12.2794 2.1608C12.2792 2.15414 12.2798 2.14747 12.2794 2.1408C12.2793 2.1378 12.2813 2.12272 12.2794 2.1208C12.2772 2.11855 12.2607 2.12347 12.2594 2.1208C12.2573 2.11647 12.2597 2.10572 12.2594 2.1008C12.2593 2.09789 12.2613 2.08264 12.2594 2.08081C12.2561 2.07747 12.2434 2.08347 12.2394 2.08081V2.06081C12.2394 2.05489 12.2408 2.04647 12.2394 2.04072C12.2385 2.03722 12.2418 2.02322 12.2394 2.02081C12.2377 2.01914 12.22 2.02281 12.2194 2.02081C12.2178 2.01556 12.2194 2.00639 12.2194 2.00081C12.2194 1.99498 12.2208 1.98648 12.2194 1.98081C12.2185 1.97731 12.2218 1.96331 12.2194 1.96081C12.2161 1.95739 12.2034 1.96348 12.1994 1.96081C12.1992 1.95414 12.1998 1.94739 12.1994 1.94081C12.1993 1.9379 12.2013 1.92265 12.1994 1.92081C12.1972 1.91856 12.1807 1.92348 12.1794 1.92081C12.1773 1.9164 12.1797 1.90565 12.1794 1.90081C12.1793 1.89781 12.1813 1.88273 12.1794 1.88073C12.1761 1.87748 12.1634 1.88348 12.1594 1.88073V1.84082C12.1554 1.83815 12.1428 1.84415 12.1394 1.84082C12.1366 1.83798 12.141 1.82473 12.1394 1.82082C12.1375 1.8159 12.1397 1.80615 12.1394 1.80073C12.1393 1.7979 12.1413 1.78274 12.1394 1.78082C12.1361 1.77749 12.1234 1.7834 12.1194 1.78082C12.1168 1.77674 12.1228 1.76415 12.1194 1.76082ZM14.5993 3.34075H14.6793H14.7193H14.7393H14.8193H14.8593H15.0193H15.0993H15.1393H15.1593H15.2393H15.2793H15.2993H15.3793H15.4193H15.4393H15.5993H15.6793H15.7193H15.7393H15.8193H15.8593H15.8793H15.9593H15.9993H16.0193H16.1792H16.2592H16.2992H16.3192H16.3992H16.4392H16.4592H16.5392H16.5792H16.5992H16.6792H16.7192H16.7392H16.8192H16.8592H16.8792H16.9592H16.9992H17.0192H17.0992H17.1392H17.1592H17.4792H17.6392H17.7192H17.7591H17.7792H17.9392H18.0192H18.0592H18.0792H18.2392H18.3192H18.3592H18.3792H18.4192H18.4392H18.5191H18.5591H18.5991C18.6056 3.34075 18.6127 3.34 18.6191 3.34075C18.6256 3.3415 18.6327 3.34075 18.6391 3.34075C18.6415 3.34075 18.6579 3.33917 18.6591 3.34075C18.6624 3.34475 18.6566 3.35617 18.6591 3.36075H18.6991H18.7191C18.7247 3.36075 18.7339 3.35917 18.7391 3.36075C18.7411 3.36133 18.7375 3.379 18.7391 3.38067C18.7425 3.384 18.7551 3.37808 18.7591 3.38067C18.7631 3.38341 18.7758 3.37742 18.7791 3.38067C18.7814 3.383 18.7764 3.39941 18.7791 3.40075C18.7832 3.40266 18.7946 3.40075 18.7991 3.40075C18.8041 3.40075 18.8147 3.39883 18.8191 3.40075C18.8216 3.40183 18.8171 3.41858 18.8191 3.42075C18.8223 3.42391 18.8351 3.4185 18.8391 3.42075C18.8421 3.42233 18.8366 3.43825 18.8391 3.44075C18.841 3.44266 18.8561 3.44058 18.8591 3.44075C18.8621 3.44091 18.877 3.43883 18.8791 3.44075C18.8825 3.44391 18.8765 3.45683 18.8791 3.46074C18.8831 3.46341 18.8958 3.45733 18.8991 3.46074C18.9025 3.46399 18.8965 3.47674 18.8991 3.48074C18.9018 3.48466 18.8958 3.49741 18.8991 3.50074C18.9018 3.50341 18.9172 3.49766 18.9191 3.50074C18.9216 3.50483 18.9158 3.51741 18.9191 3.52074C18.9212 3.52274 18.938 3.51824 18.9391 3.52074C18.941 3.52516 18.9391 3.53591 18.9391 3.54066C18.9391 3.54532 18.9371 3.55666 18.9391 3.56074C18.9404 3.56341 18.9569 3.55849 18.9591 3.56074C18.9615 3.56316 18.9582 3.57716 18.9591 3.58074C18.9605 3.58641 18.9591 3.59491 18.9591 3.60074C18.9591 3.60607 18.9574 3.61565 18.9591 3.62074C18.9599 3.6229 18.9774 3.6189 18.9791 3.62074C18.981 3.62265 18.979 3.63774 18.9791 3.64074C18.9795 3.6474 18.9788 3.65407 18.9791 3.66074V3.70073C18.9831 3.70332 18.9958 3.6974 18.9991 3.70073C19.001 3.70265 18.999 3.71773 18.9991 3.72065C18.9995 3.72732 18.9984 3.73423 18.9991 3.74073C18.9999 3.74715 18.9991 3.75423 18.9991 3.76073V3.78073V3.80065V3.84073V3.88064V3.92072V3.94072V3.98072V4.02072V4.04064V4.08072V4.16071V4.32071V4.36071V4.4007V4.4207V4.4607V4.5007V4.54061V4.5607V4.60069C18.995 4.60336 18.9825 4.59736 18.9791 4.60069C18.9767 4.60311 18.98 4.61711 18.9791 4.62069C18.9777 4.62636 18.9791 4.63478 18.9791 4.64069C18.9791 4.64669 18.9805 4.65478 18.9791 4.66069C18.9778 4.66652 18.9791 4.67469 18.9791 4.68069C18.9791 4.68561 18.981 4.69627 18.9791 4.70069C18.978 4.70327 18.9612 4.69861 18.9591 4.70069C18.9558 4.70402 18.9618 4.71669 18.9591 4.72061V4.74069C18.9591 4.74552 18.961 4.75627 18.9591 4.76069C18.958 4.76319 18.9412 4.7586 18.9391 4.76069C18.9363 4.76344 18.9405 4.77677 18.9391 4.78069C18.9373 4.78544 18.9391 4.79552 18.9391 4.8006C18.9391 4.80302 18.9407 4.81935 18.9391 4.82068C18.9351 4.82394 18.9236 4.81802 18.9191 4.82068C18.9165 4.82468 18.9225 4.83735 18.9191 4.84068C18.9163 4.84343 18.9013 4.83752 18.8991 4.84068C18.8963 4.84485 18.9025 4.85693 18.8991 4.86068C18.896 4.86402 18.8824 4.85743 18.8791 4.86068C18.8758 4.86402 18.8825 4.87735 18.8791 4.8806C18.8758 4.88393 18.8625 4.87735 18.8591 4.8806C18.856 4.88377 18.8625 4.89793 18.8591 4.90068C18.8554 4.90376 18.8425 4.89726 18.8391 4.90068C18.837 4.90276 18.8416 4.9196 18.8391 4.92068C18.8347 4.92251 18.8241 4.92068 18.8191 4.92068C18.8143 4.92068 18.8036 4.91876 18.7991 4.92068C18.7966 4.92185 18.8012 4.9386 18.7991 4.94068C18.7972 4.9426 18.7821 4.94051 18.7791 4.94068C18.7743 4.94093 18.7634 4.9386 18.7591 4.94068C18.7564 4.94201 18.7614 4.95843 18.7591 4.96068C18.7572 4.9626 18.7421 4.96051 18.7391 4.96068C18.7342 4.96093 18.7236 4.9586 18.7191 4.96068C18.7165 4.96193 18.7214 4.97843 18.7191 4.98068C18.7173 4.98259 18.7021 4.98051 18.6991 4.98068C18.6926 4.98101 18.6858 4.98043 18.6791 4.98068H18.5991C18.5965 4.98459 18.6025 4.99734 18.5991 5.00068C18.5966 5.00309 18.5826 4.99976 18.5791 5.00068C18.5735 5.00201 18.565 5.00068 18.5591 5.00068H18.5391H18.4991H18.4592H18.4392H18.3992H18.3592H18.3392H18.2992H18.2792H18.2392H18.1592H17.9992H17.6792H17.6392H17.5992H17.5792H17.5392H17.4992H17.4592H17.4392H17.3992C17.3944 5.00068 17.3836 4.99876 17.3792 5.00068C17.3767 5.00176 17.3813 5.01859 17.3792 5.02068C17.3763 5.02359 17.3632 5.01893 17.3592 5.02068C17.3536 5.02309 17.3449 5.01868 17.3392 5.02068V5.06067V5.08067V5.12067V5.16067V5.18067V5.22058V5.26067V5.28066V5.32066V5.34066V5.38058V5.46066V5.62065V5.94064V5.98063V6.00063V6.04055V6.12063V6.16063V6.18063V6.22054V6.30054V6.34062V6.36062V6.40062V6.48061V6.52061V6.54053V6.58061V6.6606V6.7006V6.72052V6.7606V6.8406V6.88051V6.90059V6.94059V7.02059V7.06059V7.08059V7.12058V7.20058V7.36057V7.52057V7.60056V7.64056V7.66056V7.74056V7.78055V7.80047V7.88047V7.92055V7.94055V8.02054V8.06054V8.08054V8.16054V8.20054V8.22045V8.30045V8.34053V8.36053V8.44053V8.48052V8.50052V8.58052V8.62052V8.64052V8.72043V8.76051V8.78051V8.86051V8.90051V8.9205V9.0005V9.04042V9.0605V9.1405V9.18049V9.20049V9.28049V9.32049V9.34049V9.42048V9.46048V9.48048V9.56048V9.60047V9.62047V9.78047V9.86046V9.90046V9.92046V10.0005V10.0404V10.0605V10.1405V10.1804V10.2004V10.2804V10.3204V10.3404V10.4204V10.4604V10.4804V10.5604V10.6004V10.6204V10.7004V10.7404V10.7604V10.8404V10.8803V10.9004V10.9804V11.0204V11.0403V11.1204V11.1604V11.1804V11.2604V11.3003V11.3204V11.4004V11.4404V11.4604V11.5403V11.5804V11.6004V11.6804V11.7203V11.7404V11.8204V11.8604V11.8803V11.9204V11.9404V11.9804V12.0004V12.0403V12.1204V12.2004V12.2404V12.2604V12.3003V12.3204V12.3604V12.3803V12.4204V12.4403V12.4803V12.5003V12.5403V12.5603V12.6003V12.6203V12.7003V12.7403V12.7603V12.8002V12.8203V12.8603V12.8802V12.9203V12.9403V12.9803V13.0003V13.0402V13.0603V13.1003V13.1203V13.2003V13.2403V13.2603V13.3002V13.3203V13.3603V13.3802V13.4203V13.4403V13.4803V13.5003V13.5402V13.5603V13.6003V13.6203V13.7003V13.7403V13.7603V13.8002V13.8203V13.8603V13.8802V13.9203V13.9403V13.9803V14.0003V14.0402V14.0603V14.1003V14.1203V14.1603V14.1803V14.2202V14.2603V14.2803V14.3203V14.3603V14.3802V14.4203V14.5003V14.5402V14.5603V14.6003V14.6403V14.6603V14.7002V14.7402V14.7602V14.8002V14.8802V14.9202V14.9402V14.9802V15.0202V15.0402V15.0802V15.1202V15.1402V15.1802V15.2602V15.3001V15.3202V15.3602V15.4002V15.4202V15.4602V15.5002V15.5202V15.5602V15.6402V15.6802V15.7002V15.7402V15.7802V15.8001V15.8402V15.8801V15.9002V15.9402V16.0202V16.0602V16.0802V16.1202V16.1602V16.1802V16.2201V16.2602V16.2802V16.3202V16.4002V16.4402V16.4602V16.5002V16.5401V16.5602V16.6002V16.6402V16.6602V16.7002V16.7802V16.8202V16.8402V16.8801V16.9601V17.0001V17.0201V17.0601V17.1401V17.1801V17.2001V17.2401V17.2801V17.3601V17.4001V17.4201C17.3352 17.4228 17.3225 17.4168 17.3192 17.4201C17.3173 17.422 17.3194 17.4372 17.3192 17.4401C17.3189 17.4466 17.32 17.4535 17.3192 17.4601C17.3184 17.4665 17.3192 17.4736 17.3192 17.4801V17.5001V17.5201V17.5601V17.5801V17.6201V17.6401C17.3192 17.646 17.3206 17.6544 17.3192 17.6601C17.3183 17.6637 17.3216 17.6777 17.3192 17.6801C17.3159 17.6835 17.3032 17.6775 17.2992 17.6801V17.72V17.7401V17.7801V17.8201V17.8401V17.88C17.2992 17.8857 17.3008 17.8948 17.2992 17.9001C17.298 17.9039 17.3018 17.9175 17.2992 17.9201C17.2959 17.9234 17.2832 17.9174 17.2792 17.9201V18.0001C17.2752 18.0028 17.2625 17.9968 17.2591 18.0001C17.2573 18.0019 17.2593 18.0172 17.2591 18.0201C17.259 18.0254 17.2612 18.0352 17.2591 18.04C17.2576 18.0439 17.2621 18.0572 17.2591 18.0601C17.2564 18.0629 17.2414 18.0569 17.2392 18.0601C17.2361 18.0647 17.2416 18.075 17.2392 18.0801V18.1201V18.1401C17.2352 18.1428 17.2225 18.1367 17.2192 18.1401C17.2168 18.1425 17.2201 18.1565 17.2192 18.1601C17.2178 18.1658 17.2192 18.1743 17.2192 18.1801C17.2192 18.1864 17.2202 18.1938 17.2192 18.2001C17.2182 18.2063 17.2192 18.2137 17.2192 18.22C17.2192 18.226 17.2206 18.2343 17.2192 18.2401C17.2183 18.2437 17.2216 18.2577 17.2192 18.2601C17.2159 18.2634 17.2032 18.2574 17.1992 18.2601V18.3401C17.1952 18.3428 17.1825 18.3368 17.1792 18.3401C17.1773 18.3419 17.1793 18.3572 17.1792 18.3601C17.179 18.3654 17.1812 18.3752 17.1792 18.38C17.1776 18.3839 17.182 18.3972 17.1792 18.4001C17.1764 18.4029 17.1614 18.3969 17.1592 18.4001C17.1562 18.4045 17.1613 18.415 17.1592 18.4201C17.1577 18.424 17.162 18.4373 17.1592 18.4401C17.1564 18.4428 17.1413 18.4368 17.1392 18.4401C17.1362 18.4446 17.1412 18.455 17.1392 18.4601C17.1374 18.4647 17.1392 18.4751 17.1392 18.4801C17.1392 18.4824 17.1408 18.4987 17.1392 18.5001C17.1352 18.5033 17.1237 18.4975 17.1192 18.5001V18.54C17.1152 18.5427 17.1025 18.5367 17.0992 18.54C17.0959 18.5434 17.1019 18.5561 17.0992 18.5601C17.0965 18.5641 17.1025 18.5767 17.0992 18.5801C17.0959 18.5834 17.0832 18.5774 17.0792 18.5801V18.6001C17.0792 18.6024 17.0808 18.6188 17.0792 18.6201C17.0752 18.6233 17.0638 18.6175 17.0592 18.6201V18.6601C17.0592 18.6658 17.0607 18.6746 17.0592 18.6801C17.0587 18.6819 17.0408 18.6784 17.0392 18.6801C17.0373 18.6819 17.0394 18.6972 17.0392 18.7001C17.039 18.7049 17.0413 18.7158 17.0392 18.72C17.0379 18.7228 17.0215 18.7177 17.0192 18.72C17.0173 18.722 17.0194 18.7372 17.0192 18.7401C17.019 18.7437 17.0213 18.7573 17.0192 18.7601C17.0167 18.7634 17.0021 18.7571 16.9992 18.7601C16.9964 18.7628 17.0024 18.778 16.9992 18.7801C16.9946 18.7832 16.9843 18.7776 16.9792 18.7801V18.8C16.9792 18.8024 16.9808 18.8187 16.9792 18.8201C16.9769 18.822 16.9604 18.8175 16.9592 18.8201C16.9572 18.8242 16.9592 18.8354 16.9592 18.8401C16.9592 18.8424 16.9608 18.8588 16.9592 18.8601C16.9565 18.8623 16.9409 18.8572 16.9392 18.8601C16.9368 18.8641 16.9425 18.8768 16.9392 18.88C16.9364 18.8829 16.9214 18.8768 16.9192 18.88C16.9161 18.8847 16.922 18.8951 16.9192 18.9001C16.917 18.9041 16.9224 18.9169 16.9192 18.9201C16.9164 18.9228 16.9014 18.9169 16.8992 18.9201C16.8961 18.9247 16.9022 18.9353 16.8992 18.9401C16.8972 18.9431 16.882 18.9373 16.8792 18.9401C16.8773 18.942 16.8794 18.9571 16.8792 18.9601C16.879 18.965 16.8813 18.9757 16.8792 18.9801C16.878 18.9827 16.8615 18.9778 16.8592 18.9801C16.8573 18.9819 16.8594 18.9971 16.8592 19.0001C16.8591 19.0038 16.8613 19.0171 16.8592 19.0201C16.8568 19.0233 16.8422 19.0171 16.8392 19.0201C16.8364 19.0228 16.8424 19.0379 16.8392 19.04C16.8349 19.0429 16.8231 19.0367 16.8192 19.04C16.8158 19.0429 16.8224 19.0569 16.8192 19.0601C16.8159 19.0634 16.8032 19.0574 16.7992 19.0601V19.1001C16.7952 19.1026 16.7826 19.0967 16.7792 19.1001C16.7759 19.1034 16.7819 19.116 16.7792 19.1201C16.7766 19.1241 16.7826 19.1366 16.7792 19.1401C16.7761 19.1432 16.762 19.1366 16.7591 19.1401C16.7561 19.1438 16.7626 19.1566 16.7591 19.1601C16.7559 19.1634 16.7426 19.1567 16.7392 19.1601C16.7359 19.1634 16.7426 19.1767 16.7392 19.1801C16.7361 19.1831 16.7218 19.1767 16.7192 19.1801C16.7173 19.1825 16.7192 19.1967 16.7192 19.2001C16.7192 19.2049 16.7211 19.2156 16.7192 19.22C16.7181 19.2225 16.7013 19.2179 16.6992 19.22C16.6959 19.2235 16.7025 19.2365 16.6992 19.24C16.6961 19.2435 16.6826 19.2368 16.6792 19.24C16.6764 19.2428 16.6825 19.258 16.6792 19.26C16.6746 19.2631 16.6643 19.2576 16.6592 19.26V19.28C16.6592 19.2825 16.6608 19.2988 16.6592 19.3C16.6563 19.3025 16.6411 19.297 16.6392 19.3C16.6366 19.304 16.6426 19.3167 16.6392 19.32C16.6365 19.3229 16.6213 19.3169 16.6192 19.32C16.6164 19.3243 16.6226 19.3361 16.6192 19.34C16.6164 19.3434 16.6025 19.3369 16.5992 19.34C16.5959 19.3434 16.6026 19.3567 16.5992 19.36C16.5959 19.3634 16.5826 19.3567 16.5792 19.36C16.576 19.3633 16.5826 19.377 16.5792 19.38C16.5756 19.3832 16.5626 19.3766 16.5592 19.38C16.5564 19.3829 16.5624 19.3979 16.5592 19.4C16.5552 19.4028 16.5427 19.3967 16.5392 19.4C16.5359 19.4033 16.5426 19.4167 16.5392 19.42C16.5365 19.4228 16.5214 19.4169 16.5192 19.42C16.5166 19.424 16.5226 19.4367 16.5192 19.44C16.5159 19.4434 16.5026 19.4367 16.4992 19.44C16.4964 19.4428 16.5024 19.4579 16.4992 19.46C16.495 19.4629 16.483 19.4566 16.4792 19.46C16.4756 19.4632 16.4627 19.4566 16.4592 19.46C16.4559 19.4633 16.4626 19.4767 16.4592 19.48C16.4559 19.4834 16.4426 19.4767 16.4392 19.48C16.436 19.4833 16.4427 19.497 16.4392 19.5C16.4357 19.5033 16.4226 19.4966 16.4192 19.5C16.4164 19.5028 16.4224 19.518 16.4192 19.52C16.4152 19.5227 16.4027 19.5167 16.3992 19.52C16.3959 19.5233 16.4026 19.5367 16.3992 19.54C16.3964 19.5429 16.3813 19.5368 16.3792 19.54C16.3766 19.544 16.3826 19.5567 16.3792 19.56C16.3759 19.5634 16.3626 19.5567 16.3592 19.56C16.3564 19.5629 16.3625 19.5779 16.3592 19.58C16.3548 19.583 16.3433 19.5768 16.3392 19.58C16.3358 19.5827 16.3424 19.597 16.3392 19.6C16.3359 19.6034 16.3232 19.5974 16.3192 19.6C16.3152 19.6027 16.3026 19.5967 16.2992 19.6C16.2963 19.6029 16.3025 19.6176 16.2992 19.62C16.2953 19.6229 16.2827 19.6166 16.2792 19.62C16.2764 19.6228 16.2825 19.6379 16.2792 19.64C16.2747 19.643 16.2635 19.6368 16.2592 19.64C16.2559 19.6425 16.2622 19.657 16.2592 19.66C16.2573 19.6619 16.2422 19.6599 16.2392 19.66C16.2356 19.6603 16.222 19.6579 16.2192 19.66C16.2159 19.6625 16.2222 19.677 16.2192 19.68C16.2165 19.6828 16.2014 19.6769 16.1992 19.68C16.1971 19.6832 16.2022 19.6979 16.1992 19.7C16.1965 19.702 16.1827 19.7 16.1792 19.7C16.1744 19.7 16.1637 19.6981 16.1593 19.7C16.1568 19.7011 16.1614 19.7179 16.1593 19.7199C16.1561 19.7233 16.1433 19.7178 16.1393 19.7199C16.1363 19.7216 16.1418 19.7375 16.1393 19.74C16.1374 19.7419 16.1222 19.7399 16.1193 19.74C16.1156 19.7402 16.1021 19.7379 16.0993 19.74C16.0959 19.7424 16.1023 19.757 16.0993 19.76C16.0964 19.7628 16.0814 19.7568 16.0793 19.76C16.0766 19.764 16.0826 19.7767 16.0793 19.78C16.0759 19.7834 16.0626 19.7767 16.0593 19.78C16.0565 19.7828 16.0624 19.7979 16.0593 19.7999C16.0546 19.8031 16.0443 19.7975 16.0393 19.7999C16.0366 19.8039 16.0426 19.8167 16.0393 19.82C16.0368 19.8224 16.0228 19.8191 16.0193 19.82C16.0136 19.8214 16.0052 19.82 15.9993 19.82H15.9793C15.9774 19.822 15.9815 19.8391 15.9793 19.84C15.9746 19.8419 15.9643 19.84 15.9593 19.84H15.9393C15.9343 19.84 15.9237 19.8381 15.9193 19.84C15.9168 19.8411 15.9213 19.8579 15.9193 19.86C15.9159 19.8634 15.9033 19.8574 15.8993 19.86H15.8593C15.8566 19.864 15.8626 19.8767 15.8593 19.8799C15.8573 19.8819 15.8423 19.8798 15.8393 19.8799C15.8343 19.8803 15.8237 19.8779 15.8193 19.8799C15.8166 19.8813 15.8215 19.8978 15.8193 19.9C15.8173 19.9019 15.8022 19.8999 15.7993 19.9C15.7936 19.9004 15.7846 19.8982 15.7793 19.9C15.7755 19.9013 15.7619 19.8973 15.7592 19.9C15.7564 19.9028 15.7625 19.9179 15.7592 19.92C15.7555 19.9225 15.7439 19.9192 15.7393 19.92C15.7332 19.9212 15.7254 19.92 15.7193 19.92H15.6993C15.6966 19.924 15.7026 19.9367 15.6993 19.94C15.6974 19.9419 15.6822 19.9399 15.6793 19.94C15.6726 19.9404 15.6659 19.9396 15.6593 19.94C15.6526 19.9404 15.6459 19.94 15.6393 19.94H15.6193C15.6153 19.9426 15.6026 19.9367 15.5993 19.94C15.5972 19.9422 15.6018 19.9589 15.5993 19.96C15.5949 19.9619 15.5841 19.96 15.5793 19.96H15.5593H15.5193C15.5137 19.96 15.5046 19.9584 15.4993 19.96C15.4955 19.9611 15.4819 19.9574 15.4793 19.96C15.4759 19.9633 15.4819 19.976 15.4793 19.98H15.4393H15.4193H15.3393H15.3193C15.3135 19.98 15.305 19.9786 15.2993 19.98C15.2957 19.9809 15.2817 19.9775 15.2793 19.98C15.276 19.9834 15.282 19.996 15.2793 20H15.2393H15.2193H15.1793H15.1593H15.1193H15.0993H15.0593H15.0193H14.9793H14.9593H14.9193H14.8393H14.6793H14.3593H13.7194H13.6794H13.6594H13.6194H13.5394H13.3794H13.0594H12.4194H12.3794H12.3594H12.3194H12.2394H12.0794H11.7594H11.1195H10.4795H9.83953H9.79953H9.77953H9.73953H9.65954H9.49954H9.17956H8.53959H7.89961H7.25964H7.21964H7.19964H7.15965H7.07965H6.91966H6.59967H5.9597H5.31973H4.67976H4.63976H4.61976H4.57976H4.49976H4.45977H4.43977H4.39977C4.3971 19.996 4.4031 19.9834 4.39977 19.98C4.39785 19.9781 4.38269 19.9802 4.37977 19.98C4.3731 19.9797 4.36644 19.9804 4.35977 19.98C4.35319 19.9797 4.34635 19.98 4.33977 19.98H4.31977H4.27977H4.19978C4.19711 19.976 4.20311 19.9633 4.19978 19.96C4.19786 19.9581 4.18269 19.9601 4.17978 19.96C4.17311 19.9596 4.16645 19.9603 4.15978 19.96H4.11978C4.11495 19.96 4.1042 19.9619 4.09978 19.96C4.09728 19.9589 4.10186 19.9422 4.09978 19.94C4.09645 19.9367 4.08378 19.9426 4.07978 19.94H4.03978H3.99979C3.99404 19.94 3.98529 19.9415 3.97979 19.94C3.97795 19.9395 3.98145 19.9216 3.97979 19.92C3.97787 19.9181 3.9627 19.9202 3.95979 19.92C3.95312 19.9197 3.94645 19.9203 3.93979 19.92H3.91979C3.91746 19.92 3.90112 19.9215 3.89979 19.92C3.89654 19.916 3.90237 19.9045 3.89979 19.9H3.85979C3.85421 19.9 3.84513 19.9016 3.83979 19.9C3.83779 19.8994 3.84146 19.8817 3.83979 19.8799C3.83646 19.8767 3.82379 19.8827 3.81979 19.8799C3.81579 19.8774 3.80313 19.8833 3.79979 19.8799C3.79646 19.8767 3.80246 19.864 3.79979 19.86H3.7798C3.77738 19.86 3.76113 19.8616 3.7598 19.86C3.75655 19.856 3.76238 19.8446 3.7598 19.84H3.7198C3.7158 19.8374 3.70313 19.8434 3.6998 19.84C3.69705 19.8372 3.70297 19.8221 3.6998 19.82C3.69605 19.8174 3.68438 19.8209 3.6798 19.82C3.67372 19.8189 3.66597 19.82 3.6598 19.82C3.6548 19.82 3.64438 19.8219 3.6398 19.82C3.63747 19.8191 3.64163 19.8021 3.6398 19.7999C3.6358 19.7974 3.62314 19.8033 3.6198 19.7999C3.61647 19.7966 3.62314 19.7834 3.6198 19.78C3.61647 19.7767 3.60314 19.7834 3.5998 19.78C3.5968 19.7769 3.60314 19.7625 3.5998 19.76C3.59597 19.7571 3.58322 19.7634 3.5798 19.76C3.57772 19.7579 3.5823 19.741 3.5798 19.74C3.57539 19.7381 3.56464 19.74 3.5598 19.74H3.53981C3.53714 19.736 3.54314 19.7234 3.53981 19.7199C3.53647 19.7166 3.52381 19.7227 3.51981 19.7199C3.51581 19.7174 3.50314 19.7234 3.49981 19.7199C3.49689 19.717 3.50306 19.7024 3.49981 19.7C3.49589 19.6971 3.48323 19.7034 3.47981 19.7C3.47698 19.6972 3.48298 19.6821 3.47981 19.68C3.47514 19.6769 3.46448 19.683 3.45981 19.68C3.45581 19.6774 3.44314 19.6834 3.43981 19.68C3.43698 19.6772 3.44298 19.6621 3.43981 19.66C3.43514 19.6569 3.42448 19.663 3.41981 19.66C3.41664 19.6579 3.42256 19.6428 3.41981 19.64C3.41789 19.6381 3.40273 19.6401 3.39981 19.64C3.39606 19.6399 3.38281 19.6421 3.37981 19.64C3.37656 19.6377 3.38273 19.6229 3.37981 19.62C3.37698 19.6172 3.36198 19.6232 3.35981 19.62C3.35756 19.6167 3.36281 19.6023 3.35981 19.6C3.35723 19.5981 3.34323 19.6 3.33981 19.6C3.33748 19.6 3.32107 19.6016 3.31982 19.6C3.31698 19.5965 3.32315 19.5828 3.31982 19.58C3.31607 19.577 3.30323 19.5835 3.29982 19.58C3.29698 19.5773 3.30298 19.5621 3.29982 19.56C3.29582 19.5574 3.28315 19.5634 3.27982 19.56C3.27648 19.5567 3.28315 19.5434 3.27982 19.54C3.27698 19.5372 3.26198 19.5432 3.25982 19.54C3.2574 19.5363 3.26307 19.5229 3.25982 19.52C3.25615 19.5169 3.24324 19.5234 3.23982 19.52C3.23649 19.5167 3.24315 19.5034 3.23982 19.5C3.23649 19.4967 3.22315 19.5034 3.21982 19.5C3.2169 19.4972 3.22307 19.4823 3.21982 19.48C3.21699 19.478 3.2034 19.48 3.19982 19.48C3.1974 19.48 3.18115 19.4816 3.17982 19.48C3.17674 19.4763 3.18324 19.4634 3.17982 19.46C3.17649 19.4566 3.18315 19.4434 3.17982 19.44C3.17699 19.4372 3.16199 19.4432 3.15982 19.44C3.15716 19.436 3.16316 19.4234 3.15982 19.42C3.15649 19.4167 3.14316 19.4234 3.13982 19.42C3.13699 19.4173 3.14307 19.4021 3.13982 19.4C3.13574 19.3972 3.12332 19.4034 3.11982 19.4C3.11632 19.3968 3.10324 19.4035 3.09983 19.4C3.09791 19.3981 3.09999 19.383 3.09983 19.38C3.09966 19.3764 3.10191 19.3628 3.09983 19.36C3.09733 19.3567 3.08283 19.363 3.07983 19.36C3.07699 19.3572 3.08299 19.3421 3.07983 19.34C3.07566 19.3373 3.06341 19.3434 3.05983 19.34C3.05649 19.3369 3.06308 19.3234 3.05983 19.32C3.05791 19.3181 3.04274 19.3202 3.03983 19.32C3.03616 19.3199 3.02266 19.3221 3.01983 19.32C3.0165 19.3175 3.02283 19.303 3.01983 19.3C3.017 19.2972 3.002 19.3033 2.99983 19.3C2.99675 19.2955 3.00233 19.285 2.99983 19.28C2.99583 19.2774 2.98316 19.2834 2.97983 19.28C2.9765 19.2767 2.9825 19.264 2.97983 19.26C2.97716 19.256 2.98316 19.2434 2.97983 19.24C2.97716 19.2374 2.96175 19.2431 2.95983 19.24C2.95733 19.236 2.96308 19.2234 2.95983 19.22C2.95775 19.2179 2.94092 19.2225 2.93983 19.22C2.93792 19.2156 2.93983 19.2049 2.93983 19.2001V19.1801C2.93583 19.1774 2.92317 19.1834 2.91983 19.1801C2.917 19.1772 2.923 19.1621 2.91983 19.1601C2.9155 19.1572 2.90375 19.1634 2.89983 19.1601C2.8965 19.1572 2.903 19.1432 2.89983 19.1401C2.897 19.1372 2.882 19.1433 2.87983 19.1401C2.87783 19.1371 2.87983 19.1237 2.87983 19.1201C2.87983 19.1176 2.88142 19.1014 2.87983 19.1001C2.87792 19.0985 2.8605 19.102 2.85984 19.1001C2.85809 19.095 2.85984 19.0854 2.85984 19.0801V19.0601C2.85584 19.0574 2.84317 19.0634 2.83984 19.0601C2.837 19.0572 2.843 19.0422 2.83984 19.04C2.83584 19.0374 2.82317 19.0434 2.81984 19.04C2.8165 19.0367 2.82317 19.0234 2.81984 19.0201C2.817 19.0172 2.80192 19.0232 2.79984 19.0201C2.79676 19.0155 2.803 19.0046 2.79984 19.0001C2.79701 18.9961 2.80317 18.9835 2.79984 18.9801C2.79701 18.9772 2.78201 18.9833 2.77984 18.9801C2.77676 18.9754 2.78284 18.9647 2.77984 18.9601C2.77776 18.9569 2.76259 18.9628 2.75984 18.9601C2.75792 18.9581 2.76001 18.943 2.75984 18.9401C2.75951 18.9334 2.76009 18.9267 2.75984 18.9201C2.75584 18.9174 2.74317 18.9234 2.73984 18.9201C2.73709 18.9173 2.74301 18.9021 2.73984 18.9001C2.73651 18.8978 2.72209 18.9031 2.71984 18.9001C2.71793 18.8974 2.71984 18.8834 2.71984 18.88C2.71984 18.8776 2.72143 18.8614 2.71984 18.8601C2.71734 18.8581 2.70118 18.8626 2.69984 18.8601C2.69784 18.8561 2.69984 18.8445 2.69984 18.8401C2.69984 18.8377 2.70143 18.8213 2.69984 18.8201C2.69793 18.8185 2.68051 18.8221 2.67984 18.8201C2.67809 18.8151 2.67984 18.8054 2.67984 18.8V18.7801C2.67584 18.7774 2.66318 18.7834 2.65984 18.7801C2.65793 18.7782 2.66001 18.763 2.65984 18.7601C2.65959 18.7547 2.66184 18.7449 2.65984 18.7401C2.65826 18.7362 2.66268 18.723 2.65984 18.72C2.65709 18.7172 2.64193 18.7233 2.63985 18.72C2.63676 18.7155 2.64226 18.7051 2.63985 18.7001V18.6601C2.63585 18.6574 2.62318 18.6634 2.61985 18.6601C2.61651 18.6567 2.62251 18.644 2.61985 18.6401C2.61718 18.6361 2.62318 18.6233 2.61985 18.6201C2.61735 18.6177 2.60143 18.6229 2.59985 18.6201C2.59785 18.6163 2.59985 18.6043 2.59985 18.6001C2.59985 18.5952 2.60168 18.5845 2.59985 18.5801C2.59876 18.5776 2.58193 18.5822 2.57985 18.5801C2.57651 18.5767 2.58251 18.5641 2.57985 18.5601C2.57718 18.5561 2.58318 18.5434 2.57985 18.54C2.57701 18.5372 2.56193 18.5432 2.55985 18.54C2.55685 18.5357 2.56185 18.5252 2.55985 18.5201C2.55802 18.5154 2.55985 18.5051 2.55985 18.5001C2.55985 18.4977 2.56143 18.4813 2.55985 18.4801C2.55585 18.4768 2.54435 18.4827 2.53985 18.4801V18.4601C2.53985 18.4552 2.54177 18.4445 2.53985 18.4401C2.53877 18.4376 2.52193 18.4423 2.51985 18.4401C2.5166 18.4368 2.52235 18.4242 2.51985 18.4201C2.51793 18.417 2.50252 18.4228 2.49985 18.4201C2.49652 18.4168 2.50252 18.4041 2.49985 18.4001C2.49718 18.3961 2.50318 18.3833 2.49985 18.38C2.49652 18.3768 2.48385 18.3828 2.47985 18.38V18.3401C2.47719 18.3361 2.48319 18.3234 2.47985 18.3201C2.47777 18.3179 2.46094 18.3226 2.45985 18.3201C2.45794 18.3157 2.45985 18.3049 2.45985 18.3V18.2801V18.2401V18.22V18.1801C2.45585 18.1774 2.44319 18.1834 2.43985 18.1801C2.43744 18.1777 2.44077 18.1637 2.43985 18.1601C2.43844 18.1543 2.43985 18.146 2.43985 18.1401V18.1201C2.43719 18.116 2.44319 18.1034 2.43985 18.1001C2.43777 18.098 2.42094 18.1026 2.41986 18.1001C2.41794 18.0957 2.41986 18.0849 2.41986 18.0801C2.41986 18.0749 2.42161 18.0649 2.41986 18.0601C2.41844 18.0563 2.42261 18.0429 2.41986 18.04C2.41777 18.038 2.40094 18.0426 2.39986 18.04C2.39794 18.0357 2.39986 18.0249 2.39986 18.0201V18.0001V17.9601C2.39586 17.9574 2.38319 17.9634 2.37986 17.9601C2.37794 17.9582 2.38002 17.943 2.37986 17.9401C2.37952 17.9335 2.38061 17.9266 2.37986 17.9201C2.37911 17.9137 2.37986 17.9066 2.37986 17.9001V17.88V17.8601V17.8201V17.8C2.37986 17.7977 2.38144 17.7814 2.37986 17.7801C2.37811 17.7788 2.36036 17.7819 2.35986 17.7801C2.35836 17.7746 2.35986 17.7659 2.35986 17.7601V17.7401V17.72V17.6801V17.6401V17.6001V17.5801V17.54V17.5201V17.4801C2.35586 17.4774 2.34319 17.4835 2.33986 17.4801C2.33794 17.4782 2.34003 17.463 2.33986 17.4601C2.33953 17.4535 2.34011 17.4468 2.33986 17.4401V17.4001V17.38V17.3401V17.3201V17.2801V17.2401V17.2001V17.1801V17.1401V17.0601V17.0201V17.0001V16.9202V16.8801V16.8602V16.8202V16.7802V16.7602V16.7201V16.7002V16.3801V16.0602V15.9802V15.9402V15.9202V15.8801V15.8602V15.7002V15.6602V15.6402V15.6002V15.5602V15.5401V15.5002V15.4602V15.4402V15.4002V15.3602V15.3402V15.3001V15.2602V15.2402V15.2002V15.1602V15.1402V15.1002V15.0602V15.0402V15.0002V14.9202V14.8802V14.8602V14.8202V14.7402V14.7002V14.6802V14.6403V14.5603V14.5203V14.5003V14.4603V14.4203V14.4003V14.3603V14.3203V14.3002V14.2603V14.1803V14.1403V14.1203V14.0803V14.0003V13.9603V13.9403V13.9003V13.8203V13.7803V13.7603V13.7202V13.7003V13.6603V13.6403V13.5603V13.5203V13.5003V13.4603V13.4203V13.4003V13.2403V13.2003V13.1803V13.1403V13.1203V13.0803V13.0603V13.0203V12.9803V12.9603V12.9203V12.8802V12.8603V12.8203V12.7403V12.7003V12.6803V12.6003V12.5603V12.5403V12.4603V12.4204V12.4004V12.3604V12.3404V12.3003V12.2804V12.2004V12.1604V12.1404V12.1004V12.0804V12.0403V12.0204V11.8604V11.7804V11.7404V11.7203V11.5604V11.5204V11.5004V11.4604V11.4204V11.4004V11.3604V11.3204V11.3003V11.2604V11.1804V11.1404V11.1204V11.0804V10.9204V10.7604V10.7203V10.7004V10.6604V10.6404V10.6004V10.5604V10.5403V10.5004V10.3404V10.2604V10.2204V10.2004V10.1604V10.1405V10.1005V10.0605V10.0404V10.0005V9.98046V9.94046V9.92046V9.84046V9.80038V9.78047V9.74047V9.72039V9.68047V9.64047V9.62047V9.58048V9.56048V9.52048V9.44048V9.40048V9.3804V9.3004V9.26049V9.24049V9.20049V9.18049V9.1405V9.1005V9.0805V9.04042V9.0205V8.9805V8.9605V8.9205V8.88042V8.86051V8.82051V8.78051V8.76051V8.72043V8.56052V8.48052V8.44053V8.42053V8.38044V8.36053V8.32053V8.30045V8.26053V8.24053V8.20054V8.16054V8.14054V8.10054V8.08054V8.04046V8.02054V7.98055V7.90055V7.86055V7.84055V7.80047V7.78055V7.74056V7.72047V7.68056V7.66056V7.62056V7.54048V7.50057V7.48057V7.40057V7.36057V7.34057V7.30049V7.28058V7.24058V7.16058V7.12058V7.10058V7.06059V7.0405V7.00059V6.98059V6.94059V6.92059V6.88051V6.86059V6.8206V6.7406V6.58061V6.26062V6.22054V6.20062V6.16063V6.12063V6.10063V6.06063V6.04055V5.96063V5.92064V5.90064V5.86064V5.84064V5.80056V5.78064V5.74064V5.72056V5.68065V5.66065V5.62065V5.60065V5.56065V5.54057V5.50066V5.48066V5.44066V5.42066V5.38058V5.36066V5.32066V5.28066V5.26067V5.22058V5.18067V5.14067V5.12067V5.08067V5.06067V5.02068H2.29986C2.29719 5.01668 2.30319 5.00401 2.29986 5.00068C2.29794 4.99876 2.28278 5.00084 2.27986 5.00068C2.27319 5.00034 2.26653 5.00093 2.25986 5.00068H2.17987H2.13987H2.09987H2.05987H2.03987H1.99987H1.95988H1.93988H1.89988H1.81988H1.65989H1.3399H1.2999H1.25991H1.21991H1.19991H1.15991H1.11991C1.11416 5.00068 1.10541 5.00218 1.09991 5.00068C1.09808 5.00018 1.10158 4.98226 1.09991 4.98068C1.098 4.97876 1.08283 4.98084 1.07991 4.98068C1.07325 4.98034 1.06658 4.98101 1.05991 4.98068H1.01992H0.999918H0.979918C0.975002 4.98068 0.964336 4.98251 0.959919 4.98068C0.957419 4.97959 0.962003 4.96276 0.959919 4.96068C0.957003 4.95776 0.943837 4.96235 0.93992 4.96068C0.936004 4.95901 0.922838 4.9636 0.919921 4.96068C0.917838 4.9586 0.922421 4.94176 0.919921 4.94068C0.915505 4.93876 0.904755 4.94068 0.899922 4.94068C0.895672 4.94068 0.883506 4.94268 0.879923 4.94068C0.877006 4.9391 0.882423 4.9231 0.879923 4.92068C0.87659 4.91735 0.863924 4.92335 0.859924 4.92068C0.855924 4.91801 0.843258 4.92401 0.839925 4.92068C0.837008 4.91776 0.843174 4.9031 0.839925 4.90068C0.836008 4.89776 0.823342 4.9041 0.819925 4.90068C0.817092 4.89785 0.823092 4.88285 0.819925 4.8806C0.815759 4.87785 0.80351 4.88402 0.799926 4.8806C0.79651 4.87752 0.803176 4.86393 0.799926 4.86068C0.797093 4.85785 0.782094 4.86385 0.779927 4.86068C0.777011 4.85627 0.78326 4.84468 0.779927 4.84068C0.777094 4.83727 0.763095 4.84385 0.759928 4.84068C0.756595 4.83735 0.762595 4.82468 0.759928 4.82068C0.755928 4.81793 0.743262 4.82402 0.739929 4.82068C0.738012 4.81877 0.740096 4.8036 0.739929 4.8006C0.739679 4.79535 0.741929 4.7856 0.739929 4.78069C0.738346 4.77677 0.742762 4.76352 0.739929 4.76069C0.737179 4.75794 0.722013 4.76385 0.71993 4.76069C0.716847 4.75602 0.722346 4.74569 0.71993 4.74069V4.72061C0.71993 4.71586 0.721763 4.70511 0.71993 4.70069C0.718847 4.69819 0.702014 4.70277 0.699931 4.70069C0.696598 4.69736 0.702597 4.68469 0.699931 4.68069V4.64069C0.699931 4.63419 0.700681 4.62703 0.699931 4.62069C0.699181 4.61428 0.699931 4.60711 0.699931 4.60069C0.699931 4.59836 0.701514 4.58195 0.699931 4.5807C0.695931 4.57745 0.684431 4.58328 0.679932 4.5807V4.54061V4.4607V4.4207V4.38062V4.36071V4.32071V4.28071V4.26071V4.22063V4.14071V3.98072V3.94072V3.90073V3.88064V3.84073V3.80065V3.76073V3.74073C0.683931 3.73798 0.696598 3.74407 0.699931 3.74073C0.702431 3.73823 0.699014 3.72423 0.699931 3.72065C0.701347 3.71498 0.699931 3.70665 0.699931 3.70073C0.699931 3.6944 0.698931 3.68699 0.699931 3.68074C0.700847 3.67449 0.699931 3.66707 0.699931 3.66074C0.699931 3.65482 0.698514 3.6464 0.699931 3.64074C0.700764 3.63724 0.697431 3.62324 0.699931 3.62074C0.703264 3.6174 0.71593 3.6234 0.71993 3.62074V3.60074C0.71993 3.59491 0.718513 3.58641 0.71993 3.58074C0.720847 3.57716 0.717513 3.56316 0.71993 3.56074C0.722096 3.55849 0.738762 3.56341 0.739929 3.56074C0.741846 3.55657 0.739929 3.54541 0.739929 3.54066C0.739929 3.53832 0.738346 3.52208 0.739929 3.52074C0.743929 3.51749 0.755428 3.52333 0.759928 3.52074C0.762595 3.51674 0.756595 3.50408 0.759928 3.50074C0.762761 3.49799 0.777761 3.50391 0.779927 3.50074C0.78301 3.49608 0.776927 3.48541 0.779927 3.48074C0.78201 3.47758 0.797176 3.48349 0.799926 3.48074C0.801843 3.47883 0.79976 3.46366 0.799926 3.46074C0.800093 3.45783 0.79801 3.44266 0.799926 3.44075C0.801676 3.439 0.817092 3.44075 0.819925 3.44075C0.822259 3.44075 0.838591 3.44233 0.839925 3.44075C0.843008 3.437 0.836508 3.424 0.839925 3.42075C0.843341 3.4175 0.856591 3.42408 0.859924 3.42075C0.862424 3.41833 0.857007 3.40233 0.859924 3.40075C0.86359 3.39875 0.875673 3.40075 0.879923 3.40075C0.882256 3.40075 0.898589 3.40233 0.899922 3.40075C0.901505 3.39883 0.897922 3.38142 0.899922 3.38067C0.904922 3.379 0.914588 3.38067 0.919921 3.38067H0.93992C0.942587 3.37675 0.936587 3.36408 0.93992 3.36075C0.942337 3.35833 0.956336 3.36167 0.959919 3.36075C0.965586 3.35933 0.974002 3.36075 0.979918 3.36075H0.999918H1.01992C1.02225 3.36075 1.03858 3.36233 1.03992 3.36075C1.04317 3.35675 1.03733 3.34533 1.03992 3.34075H1.11991H1.19991H1.23991H1.27991H1.2999H1.3399H1.3599H1.3999H1.4199H1.4599H1.4799H1.51989H1.53989H1.57989H1.59989H1.63989H1.65989H1.73989H1.75988H1.79988H1.81988H1.85988H1.87988H1.95988H1.97987H2.01987H2.03987H2.07987H2.09987H2.17987H2.19986H2.23986H2.25986H2.29986H2.31986H2.35986H2.37986H2.41986H2.43985H2.47985H2.49985H2.53985H2.55985H2.63985H2.65984H2.69984H2.71984H2.75984H2.77984H2.85984H2.87983H2.91983H2.93983H2.97983H2.99983H3.07983H3.09983H3.13982H3.15982H3.19982H3.21982H3.25982H3.27982H3.31982H3.33981H3.37981H3.39981H3.43981H3.45981H3.53981H3.5598H3.5998H3.6198H3.6598H3.6798H3.7598H3.7798H3.81979H3.83979H3.87979H3.89979H3.97979H3.99979H4.03978H4.05978H4.09978H4.11978H4.19978H4.21978H4.25977H4.27977H4.31977H4.33977H4.41977H4.43977H4.47976H4.49976H4.53976H4.55976H4.63976H4.65976H4.69975H4.71975H4.75975H4.77975H4.81975H4.89975H4.93974H4.97974H4.99974H5.07974H5.09974C5.1024 3.33675 5.0964 3.32408 5.09974 3.32075C5.10257 3.31792 5.11757 3.32392 5.11974 3.32075C5.12282 3.31608 5.11674 3.30542 5.11974 3.30067C5.12182 3.2975 5.13699 3.3035 5.13974 3.30067C5.14165 3.29884 5.13957 3.28367 5.13974 3.28075C5.13999 3.27592 5.13765 3.265 5.13974 3.26075C5.14107 3.258 5.1574 3.263 5.15973 3.26075C5.16165 3.25884 5.15957 3.24367 5.15973 3.24075C5.15998 3.23542 5.15773 3.22559 5.15973 3.22067C5.16132 3.21684 5.1569 3.20359 5.15973 3.20076C5.16307 3.19742 5.17573 3.20334 5.17973 3.20076C5.1824 3.19676 5.1764 3.18409 5.17973 3.18076C5.18257 3.17792 5.19757 3.18392 5.19973 3.18076C5.20273 3.17626 5.19773 3.16576 5.19973 3.16076C5.20157 3.15609 5.19973 3.14576 5.19973 3.14076C5.19973 3.13834 5.19815 3.12209 5.19973 3.12076C5.20373 3.11743 5.21523 3.12343 5.21973 3.12076V3.10076C5.21973 3.09493 5.21832 3.08643 5.21973 3.08076C5.22065 3.07718 5.21732 3.06318 5.21973 3.06076C5.2219 3.05851 5.23856 3.06343 5.23973 3.06076C5.24165 3.0566 5.23973 3.04543 5.23973 3.04068C5.23973 3.03835 5.23815 3.0221 5.23973 3.02076C5.24206 3.01885 5.25856 3.02318 5.25973 3.02076C5.26165 3.0166 5.25973 3.00543 5.25973 3.00077C5.25973 2.99843 5.25815 2.98202 5.25973 2.98077C5.26206 2.97885 5.27856 2.98327 5.27973 2.98077C5.28165 2.97668 5.27973 2.96535 5.27973 2.96077C5.27973 2.95835 5.27815 2.9421 5.27973 2.94077C5.28373 2.93752 5.29523 2.94335 5.29973 2.94077V2.92077C5.29973 2.91494 5.29831 2.90644 5.29973 2.90077C5.30065 2.89719 5.29731 2.88319 5.29973 2.88069C5.30123 2.87927 5.31931 2.88252 5.31973 2.88069C5.32106 2.87494 5.31973 2.86669 5.31973 2.86077V2.84077V2.82077C5.32373 2.81802 5.33639 2.82411 5.33973 2.82077C5.34306 2.81744 5.33706 2.80469 5.33973 2.80069C5.34239 2.79677 5.33639 2.78411 5.33973 2.78077C5.34306 2.77744 5.35573 2.78336 5.35973 2.78077V2.76078C5.35973 2.75494 5.35831 2.74644 5.35973 2.74078C5.36056 2.73719 5.35731 2.72319 5.35973 2.72069C5.36148 2.71903 5.37914 2.72278 5.37972 2.72069C5.38131 2.71544 5.37972 2.70636 5.37972 2.70078C5.37972 2.69486 5.37831 2.68645 5.37972 2.68078C5.38064 2.6772 5.37731 2.6632 5.37972 2.66078C5.38172 2.6587 5.39872 2.66311 5.39972 2.66078C5.40156 2.65611 5.39972 2.64578 5.39972 2.64078C5.39972 2.63595 5.39781 2.6252 5.39972 2.62078C5.40081 2.61828 5.41764 2.62286 5.41972 2.62078C5.42264 2.61787 5.41806 2.6047 5.41972 2.60078C5.42139 2.59678 5.41681 2.5837 5.41972 2.58078C5.42181 2.57862 5.43864 2.58328 5.43972 2.58078C5.44164 2.57637 5.43972 2.56562 5.43972 2.56078V2.5407C5.44372 2.53812 5.45639 2.54412 5.45972 2.5407C5.46164 2.53887 5.45956 2.5237 5.45972 2.52079C5.45997 2.51554 5.45772 2.50562 5.45972 2.50079C5.4613 2.49687 5.45689 2.48362 5.45972 2.48079C5.46305 2.47745 5.47572 2.48345 5.47972 2.48079V2.44079C5.48372 2.43812 5.49639 2.44412 5.49972 2.44079C5.50305 2.43746 5.49705 2.42479 5.49972 2.42079C5.50239 2.41679 5.49639 2.40412 5.49972 2.40079C5.50239 2.39804 5.5178 2.40387 5.51972 2.40079C5.52222 2.39679 5.51647 2.38404 5.51972 2.38071C5.5218 2.37871 5.53863 2.38329 5.53972 2.38071C5.54163 2.37638 5.53972 2.36563 5.53972 2.36079V2.34079C5.54372 2.33813 5.55638 2.34413 5.55972 2.34079C5.56155 2.33888 5.55955 2.32371 5.55972 2.32079C5.56005 2.31471 5.55813 2.30655 5.55972 2.30071C5.56122 2.2953 5.55972 2.28655 5.55972 2.2808C5.55972 2.27838 5.55813 2.26213 5.55972 2.2608C5.56372 2.25755 5.57522 2.26338 5.57972 2.2608V2.2408C5.57972 2.23838 5.57813 2.22205 5.57972 2.22072C5.58163 2.21922 5.59905 2.2228 5.59972 2.22072C5.60147 2.2158 5.59972 2.20613 5.59972 2.2008C5.59972 2.19638 5.59772 2.18463 5.59972 2.1808C5.60113 2.17797 5.6173 2.18313 5.61971 2.1808C5.62305 2.17747 5.61705 2.1648 5.61971 2.1608C5.62238 2.1568 5.61638 2.14414 5.61971 2.1408C5.62171 2.1388 5.63871 2.14322 5.63971 2.1408C5.64155 2.13622 5.63971 2.1258 5.63971 2.1208C5.63971 2.11489 5.6383 2.10647 5.63971 2.1008C5.64063 2.09722 5.6373 2.08322 5.63971 2.08081C5.64146 2.07906 5.65905 2.08281 5.65971 2.08081C5.6613 2.07547 5.65971 2.06639 5.65971 2.06081C5.65971 2.05489 5.6583 2.04647 5.65971 2.04072C5.66055 2.03722 5.65721 2.02322 5.65971 2.02081C5.66305 2.01747 5.67571 2.02347 5.67971 2.02081V1.98081C5.68371 1.97806 5.69638 1.98414 5.69971 1.98081C5.70304 1.97748 5.69704 1.96481 5.69971 1.96081C5.70238 1.95681 5.69638 1.94414 5.69971 1.94081C5.70304 1.93748 5.71571 1.94339 5.71971 1.94081V1.90081C5.71971 1.8959 5.71779 1.88523 5.71971 1.88073C5.72079 1.87831 5.73763 1.8829 5.73971 1.88073C5.74263 1.87781 5.73804 1.86473 5.73971 1.86082C5.74138 1.85682 5.73679 1.84373 5.73971 1.84082C5.74246 1.83798 5.75763 1.84398 5.75971 1.84082C5.76279 1.83615 5.75671 1.82548 5.75971 1.82082C5.76229 1.81682 5.75637 1.80407 5.75971 1.80073C5.76304 1.7974 5.77571 1.80348 5.77971 1.80073V1.76082C5.77971 1.7559 5.77779 1.74515 5.77971 1.74082C5.78079 1.73824 5.79762 1.7429 5.79971 1.74082C5.80221 1.73832 5.79879 1.72432 5.79971 1.72074C5.80112 1.71524 5.79971 1.70666 5.79971 1.70082C5.79971 1.69491 5.79829 1.68649 5.79971 1.68082C5.80062 1.67724 5.79729 1.66324 5.79971 1.66082C5.80304 1.65749 5.81571 1.66349 5.81971 1.66082V1.64082C5.81971 1.63841 5.81812 1.62216 5.81971 1.62083C5.82162 1.61924 5.83904 1.62283 5.8397 1.62083C5.84145 1.61583 5.8397 1.60616 5.8397 1.60083C5.8397 1.59624 5.83771 1.58491 5.8397 1.58083C5.84104 1.57816 5.85737 1.58308 5.8597 1.58083C5.86162 1.57891 5.85954 1.56374 5.8597 1.56083C5.85995 1.55633 5.85754 1.54466 5.8597 1.54075C5.86129 1.53791 5.87729 1.54333 5.8797 1.54075C5.88262 1.53791 5.87804 1.52475 5.8797 1.52083C5.88162 1.51633 5.8797 1.50566 5.8797 1.50083C5.8797 1.4985 5.87812 1.48208 5.8797 1.48083C5.88162 1.47925 5.89904 1.48283 5.8997 1.48083C5.90145 1.47583 5.8997 1.46617 5.8997 1.46083C5.8997 1.45617 5.89779 1.445 5.8997 1.44083C5.90162 1.43683 5.8967 1.42383 5.8997 1.42083C5.90245 1.41808 5.91753 1.424 5.9197 1.42083C5.92262 1.4165 5.91637 1.40475 5.9197 1.40084C5.92253 1.3975 5.93653 1.404 5.9397 1.40084C5.94303 1.3975 5.93703 1.38484 5.9397 1.38075V1.34084C5.9437 1.33817 5.95637 1.34417 5.9597 1.34084C5.96212 1.33842 5.95878 1.32442 5.9597 1.32084C5.96112 1.31509 5.9597 1.30676 5.9597 1.30076C5.9597 1.29526 5.95812 1.28617 5.9597 1.28084C5.96028 1.27884 5.97803 1.28259 5.9797 1.28084C5.98211 1.27842 5.97878 1.26442 5.9797 1.26084C5.98111 1.25518 5.9797 1.24668 5.9797 1.24084V1.22076C5.9837 1.21818 5.99636 1.22418 5.9997 1.22076C6.00303 1.21743 5.99636 1.20418 5.9997 1.20084C6.00303 1.19751 6.01636 1.20418 6.0197 1.20084C6.02303 1.19751 6.01703 1.18484 6.0197 1.18085C6.02178 1.17768 6.03695 1.1836 6.0397 1.18085C6.04161 1.17901 6.03953 1.16376 6.0397 1.16085C6.04003 1.15418 6.03936 1.14751 6.0397 1.14085C6.0437 1.1381 6.05636 1.14418 6.0597 1.14085C6.06211 1.13835 6.05878 1.12435 6.0597 1.12085C6.06111 1.11518 6.0597 1.10668 6.0597 1.10085C6.0597 1.09593 6.05778 1.08527 6.0597 1.08085C6.06078 1.07835 6.07761 1.08293 6.07969 1.08085C6.08303 1.07752 6.07703 1.06477 6.07969 1.06085C6.08236 1.05685 6.07636 1.04418 6.07969 1.04077C6.08303 1.03752 6.09569 1.04352 6.09969 1.04077C6.10236 1.03677 6.09636 1.02419 6.09969 1.02085C6.10178 1.01877 6.11861 1.02335 6.11969 1.02085C6.12161 1.01635 6.11969 1.00569 6.11969 1.00085V0.980854C6.12369 0.978104 6.13636 0.984187 6.13969 0.980854C6.14302 0.977521 6.13702 0.964855 6.13969 0.960855C6.14236 0.956855 6.13636 0.944189 6.13969 0.940856C6.14302 0.937523 6.15569 0.943439 6.15969 0.940856V0.920857C6.15969 0.91594 6.15777 0.905191 6.15969 0.900857C6.16077 0.898274 6.17761 0.902941 6.17969 0.900857C6.18311 0.897524 6.17644 0.884358 6.17969 0.880775C6.18286 0.877442 6.19644 0.884108 6.19969 0.880775C6.20244 0.878025 6.19652 0.863026 6.19969 0.860859C6.20427 0.857776 6.21469 0.863276 6.21969 0.860859V0.84086C6.21969 0.838527 6.2181 0.822111 6.21969 0.820861C6.2216 0.819278 6.23894 0.822861 6.23969 0.820861C6.24144 0.815861 6.23969 0.806195 6.23969 0.800779C6.23969 0.796612 6.23769 0.784446 6.23969 0.780863C6.24127 0.777946 6.25719 0.783279 6.25969 0.780863C6.26252 0.77803 6.25644 0.762947 6.25969 0.760864C6.26194 0.75928 6.27869 0.76303 6.27969 0.760864C6.2816 0.756614 6.27969 0.745531 6.27969 0.740865C6.27969 0.737448 6.27769 0.723532 6.27969 0.720782C6.2821 0.717532 6.29668 0.723865 6.29968 0.720782C6.30302 0.717449 6.29635 0.7042 6.29968 0.700866C6.30302 0.697533 6.31635 0.7042 6.31968 0.700866C6.32302 0.697533 6.31635 0.684034 6.31968 0.680867C6.3231 0.677534 6.33635 0.6842 6.33968 0.680867C6.34252 0.678034 6.33643 0.662951 6.33968 0.660868C6.34402 0.658035 6.35577 0.664201 6.35968 0.660868C6.3631 0.658035 6.35652 0.644036 6.35968 0.640869C6.3631 0.637452 6.37618 0.644202 6.37968 0.640869C6.38301 0.637619 6.37643 0.62412 6.37968 0.62087C6.38301 0.617537 6.39635 0.62412 6.39968 0.62087C6.40301 0.617537 6.39635 0.604204 6.39968 0.600871C6.4031 0.597454 6.41618 0.604121 6.41968 0.600871C6.42301 0.597704 6.41643 0.584122 6.41968 0.580872C6.42251 0.578122 6.43751 0.584038 6.43968 0.580872C6.44259 0.576539 6.43635 0.564789 6.43968 0.560872C6.44251 0.557539 6.45651 0.564039 6.45968 0.560872C6.46268 0.557789 6.45634 0.543457 6.45968 0.54079C6.46351 0.537874 6.47626 0.544207 6.47968 0.54079C6.48176 0.53879 6.47718 0.521958 6.47968 0.520874C6.48409 0.519041 6.49484 0.520874 6.49968 0.520874H6.51968C6.52234 0.516874 6.51634 0.504208 6.51968 0.500875C6.52251 0.498125 6.53751 0.504042 6.53967 0.500875C6.54117 0.498542 6.53742 0.481793 6.53967 0.480876C6.54392 0.478959 6.55492 0.480876 6.55967 0.480876H6.57967C6.58234 0.476876 6.57634 0.464127 6.57967 0.460877C6.58242 0.458044 6.59751 0.464043 6.59967 0.460877C6.60234 0.456877 6.59634 0.444211 6.59967 0.440878C6.603 0.437545 6.61634 0.444211 6.61967 0.440878C6.62242 0.438045 6.6165 0.422962 6.61967 0.420879C6.62417 0.417879 6.63534 0.424129 6.63967 0.420879C6.6435 0.417962 6.65625 0.424295 6.65967 0.420879C6.66242 0.418129 6.6565 0.402963 6.65967 0.40088C6.664 0.397963 6.67575 0.404213 6.67967 0.40088C6.68308 0.397963 6.6765 0.383964 6.67967 0.380797C6.683 0.377547 6.69567 0.383547 6.69967 0.380797C6.70233 0.376881 6.69633 0.364215 6.69967 0.360881C6.703 0.357548 6.71567 0.363548 6.71967 0.360881C6.72367 0.358215 6.73633 0.364215 6.73967 0.360881C6.74258 0.357881 6.73633 0.343299 6.73967 0.340882C6.74358 0.338049 6.75625 0.344215 6.75966 0.340882C6.7625 0.338049 6.75641 0.322966 6.75966 0.320883C6.76425 0.317883 6.77525 0.32405 6.77966 0.320883C6.78358 0.31805 6.79625 0.3243 6.79966 0.320883C6.803 0.31755 6.79633 0.304134 6.79966 0.300801C6.803 0.297467 6.81633 0.304134 6.81966 0.300801C6.82291 0.297634 6.81633 0.283885 6.81966 0.280885C6.82324 0.277635 6.83624 0.284218 6.83966 0.280885C6.84249 0.278052 6.83641 0.262969 6.83966 0.260886C6.84424 0.257803 6.85466 0.263302 6.85966 0.260886C6.86233 0.256886 6.85633 0.24422 6.85966 0.240887C6.86208 0.238387 6.87608 0.24172 6.87966 0.240887C6.88533 0.23947 6.89374 0.240887 6.89966 0.240887H6.91966C6.92232 0.236887 6.91632 0.224221 6.91966 0.220804C6.92249 0.218054 6.93749 0.224137 6.93966 0.220804C6.94182 0.217554 6.93657 0.203222 6.93966 0.200888C6.94224 0.198972 6.95624 0.200888 6.95966 0.200888C6.96199 0.200888 6.97832 0.202472 6.97965 0.200888C6.9829 0.196889 6.97707 0.185389 6.97965 0.180889H7.01965C7.02232 0.176889 7.01632 0.164223 7.01965 0.16089C7.02157 0.158974 7.03674 0.161057 7.03965 0.16089C7.04565 0.160557 7.0539 0.16239 7.05965 0.16089C7.06515 0.15939 7.0739 0.16089 7.07965 0.16089C7.08207 0.16089 7.09832 0.16239 7.09965 0.16089C7.1029 0.15689 7.09707 0.145391 7.09965 0.140891H7.11965C7.12448 0.140891 7.13523 0.142808 7.13965 0.140891C7.14215 0.139808 7.13756 0.122975 7.13965 0.120892C7.14256 0.117975 7.15565 0.122558 7.15965 0.120892C7.16356 0.119225 7.17673 0.123808 7.17965 0.120892C7.18173 0.118809 7.17715 0.101976 7.17965 0.100893C7.18406 0.0989762 7.19481 0.100893 7.19964 0.100893H7.21964C7.22231 0.0968929 7.21631 0.0842268 7.21964 0.0808937C7.22206 0.0784771 7.23606 0.0818103 7.23964 0.0808937C7.24531 0.079477 7.25381 0.0808937 7.25964 0.0808937C7.26564 0.0808937 7.27381 0.0821436 7.27964 0.0808937C7.28547 0.0795604 7.29364 0.0808937 7.29964 0.0808937C7.30456 0.0808937 7.31522 0.0827269 7.31964 0.0808937C7.32214 0.0798104 7.31756 0.0629778 7.31964 0.0608945C7.32297 0.0575613 7.33564 0.0635611 7.33964 0.0608945H7.37964C7.38364 0.058228 7.3963 0.0642277 7.39964 0.0608945C7.40239 0.0580613 7.39647 0.043062 7.39964 0.0408121C7.40405 0.0378955 7.41455 0.0428953 7.41964 0.0408121C7.4243 0.0390622 7.43463 0.0408121 7.43963 0.0408121C7.44197 0.0408121 7.4583 0.0424787 7.45963 0.0408121C7.46288 0.0368956 7.45705 0.0253961 7.45963 0.0208963H7.53963H7.57963H7.59963H7.61963C7.62204 0.0208963 7.63829 0.0224796 7.63963 0.0208963C7.64288 0.0168965 7.63704 0.00548031 7.63963 0.000897175H7.65963H7.73962H7.77962H7.79962H7.87961H7.91961H7.99961H8.03961H8.05961H8.09961H8.1196H8.1596H8.1796H8.2196H8.2396H8.2796H8.2996H8.33959H8.35959H8.39959H8.41959H8.45959H8.47959H8.51959H8.53959H8.57958H8.59958H8.63958H8.65958H8.69958H8.71958H8.75958H8.77958H8.81957H8.83957H8.87957H8.89957H8.97957H9.01956H9.03956H9.07956H9.09956H9.13956H9.15956H9.19956H9.21956H9.25955H9.27955H9.31955H9.33955H9.37955H9.39955H9.43955H9.45955H9.49954H9.51954H9.55954H9.57954H9.61954H9.63954H9.67954H9.69954H9.73953H9.75953H9.79953H9.81953H9.85953H9.87953H9.95952H9.99952H10.0195H10.0595H10.0795H10.1195H10.1395H10.1795H10.1995H10.2395H10.2595H10.2995H10.3195H10.3595H10.3795H10.4195H10.4395H10.4795H10.4995H10.5395H10.5595H10.5995H10.6195H10.6595H10.6795H10.7195H10.7395H10.7795H10.7995H10.8395H10.8595H10.8995H10.9195H10.9595H10.9795H11.0195H11.0395H11.0795H11.0995H11.1395H11.1595H11.1995H11.2195H11.2595H11.2795H11.3195H11.3395H11.3795H11.3995H11.4395H11.4595H11.4995H11.5195H11.5595H11.5795H11.6195H11.6394H11.6794H11.6994H11.7394H11.7594H11.7994H11.8194H11.8994H11.9394H11.9794H11.9994H12.0194C12.0253 0.000897175 12.0338 -0.000519429 12.0394 0.000897175C12.043 0.0018138 12.057 -0.00151939 12.0594 0.000897175C12.0628 0.00423036 12.0568 0.0168965 12.0594 0.0208963H12.0994H12.1394H12.1594H12.1994H12.2194C12.2221 0.0248961 12.2161 0.0375622 12.2194 0.0408121C12.2213 0.042812 12.2365 0.0407288 12.2394 0.0408121C12.2448 0.0411454 12.2545 0.0388955 12.2594 0.0408121C12.2633 0.0424787 12.2766 0.0380622 12.2794 0.0408121C12.2822 0.0437286 12.2763 0.058728 12.2794 0.0608945C12.284 0.0639777 12.2944 0.0583946 12.2994 0.0608945H12.3394H12.3594C12.3621 0.064811 12.3561 0.0775605 12.3594 0.0808937C12.3613 0.0827269 12.3765 0.080727 12.3794 0.0808937C12.3861 0.081227 12.3928 0.0806437 12.3994 0.0808937H12.4194C12.4253 0.0808937 12.4337 0.079477 12.4394 0.0808937C12.443 0.0818103 12.457 0.0784771 12.4594 0.0808937C12.4627 0.0842268 12.4567 0.0968929 12.4594 0.100893H12.4794C12.4852 0.100893 12.4937 0.0993928 12.4994 0.100893C12.503 0.101809 12.517 0.0984762 12.5194 0.100893C12.5216 0.103059 12.5167 0.119725 12.5194 0.120892C12.5236 0.122808 12.5347 0.120892 12.5394 0.120892C12.5417 0.120892 12.5581 0.119309 12.5594 0.120892C12.5627 0.124892 12.5568 0.136391 12.5594 0.140891H12.5994C12.6021 0.144808 12.5961 0.157557 12.5994 0.16089C12.6019 0.16339 12.6158 0.15989 12.6194 0.16089C12.6249 0.16239 12.6337 0.16089 12.6394 0.16089C12.6452 0.16089 12.6537 0.159474 12.6594 0.16089C12.663 0.161807 12.677 0.15839 12.6794 0.16089C12.6827 0.164223 12.6767 0.176889 12.6794 0.180889C12.6834 0.183556 12.6961 0.177556 12.6994 0.180889C12.7015 0.182972 12.6969 0.199805 12.6994 0.200888C12.7038 0.202805 12.7145 0.200888 12.7194 0.200888C12.7228 0.200888 12.7368 0.198972 12.7394 0.200888C12.7427 0.203388 12.7364 0.217888 12.7394 0.220804C12.7422 0.223721 12.7573 0.217638 12.7594 0.220804C12.7625 0.225471 12.757 0.235803 12.7594 0.240887H12.7794C12.7852 0.240887 12.7937 0.23947 12.7994 0.240887C12.8029 0.24172 12.817 0.238387 12.8194 0.240887C12.8227 0.24422 12.8167 0.256886 12.8194 0.260886C12.8234 0.263552 12.8361 0.257553 12.8394 0.260886C12.8427 0.264219 12.8361 0.277552 12.8394 0.280885C12.8427 0.284218 12.8561 0.277552 12.8594 0.280885C12.8626 0.284135 12.8561 0.297801 12.8594 0.300801C12.863 0.304134 12.876 0.297467 12.8794 0.300801C12.8822 0.303717 12.8762 0.318716 12.8794 0.320883C12.884 0.323966 12.8949 0.3178 12.8994 0.320883C12.9033 0.323633 12.9161 0.31755 12.9194 0.320883C12.9222 0.323716 12.9162 0.338799 12.9194 0.340882C12.9241 0.343965 12.9347 0.337882 12.9394 0.340882C12.9426 0.342882 12.9366 0.358131 12.9394 0.360881C12.9413 0.362798 12.9565 0.360715 12.9594 0.360881C12.9633 0.361048 12.9762 0.358715 12.9794 0.360881C12.9826 0.363131 12.9766 0.378047 12.9794 0.380797C12.9827 0.38413 12.9961 0.377547 12.9994 0.380797C13.0027 0.38413 12.9961 0.397546 12.9994 0.40088C13.0026 0.404129 13.0154 0.39838 13.0194 0.40088C13.0234 0.403379 13.0361 0.39763 13.0394 0.40088C13.0422 0.403713 13.0362 0.418712 13.0394 0.420879C13.0439 0.423962 13.0549 0.417712 13.0594 0.420879C13.0634 0.423629 13.076 0.417545 13.0794 0.420879C13.0821 0.423629 13.0761 0.438795 13.0794 0.440878C13.0834 0.443461 13.0961 0.437545 13.0994 0.440878C13.1027 0.444211 13.0961 0.45746 13.0994 0.460877C13.1022 0.46371 13.1172 0.457627 13.1194 0.460877C13.1216 0.46421 13.1163 0.47846 13.1194 0.480876C13.1233 0.483876 13.136 0.477543 13.1394 0.480876C13.1415 0.482959 13.1369 0.499792 13.1394 0.500875C13.1438 0.502708 13.1546 0.500875 13.1594 0.500875C13.1628 0.500875 13.1768 0.498875 13.1794 0.500875C13.1827 0.503375 13.1764 0.517874 13.1794 0.520874C13.1822 0.523624 13.1972 0.517708 13.1994 0.520874C13.2019 0.524541 13.1961 0.537957 13.1994 0.54079C13.203 0.54404 13.216 0.537457 13.2194 0.54079C13.2221 0.543707 13.2162 0.558706 13.2194 0.560872C13.2234 0.563539 13.236 0.557539 13.2394 0.560872C13.2427 0.564206 13.236 0.577538 13.2394 0.580872C13.2421 0.583622 13.2572 0.577705 13.2593 0.580872C13.262 0.584788 13.256 0.597704 13.2593 0.600871C13.2628 0.604121 13.276 0.597454 13.2794 0.600871C13.2822 0.603621 13.2762 0.618703 13.2794 0.62087C13.2834 0.623536 13.296 0.617537 13.2994 0.62087C13.3027 0.62412 13.296 0.637452 13.2994 0.640869C13.3021 0.643702 13.3173 0.637619 13.3194 0.640869C13.322 0.644785 13.316 0.657535 13.3194 0.660868C13.3227 0.664201 13.336 0.657535 13.3394 0.660868C13.3422 0.663701 13.3361 0.678784 13.3394 0.680867C13.3434 0.683534 13.356 0.677534 13.3594 0.680867C13.3627 0.6842 13.356 0.697533 13.3594 0.700866C13.3622 0.703616 13.3772 0.697617 13.3794 0.700866C13.3825 0.705449 13.377 0.715866 13.3794 0.720782C13.3834 0.723532 13.396 0.717449 13.3994 0.720782C13.4013 0.722782 13.3992 0.737948 13.3994 0.740865C13.3996 0.745364 13.3973 0.756947 13.3994 0.760864C13.401 0.76378 13.4169 0.758447 13.4194 0.760864C13.4227 0.764197 13.4167 0.77678 13.4194 0.780863C13.4215 0.784029 13.4365 0.77803 13.4394 0.780863C13.4427 0.784196 13.4367 0.796862 13.4394 0.800779C13.442 0.804778 13.436 0.817528 13.4394 0.820861C13.4427 0.824194 13.4554 0.818111 13.4594 0.820861V0.860859C13.4634 0.863442 13.476 0.857526 13.4794 0.860859C13.4827 0.864192 13.476 0.877525 13.4794 0.880775C13.4827 0.884108 13.496 0.877525 13.4994 0.880775C13.5027 0.884108 13.496 0.897524 13.4994 0.900857C13.5027 0.904191 13.516 0.897524 13.5194 0.900857C13.5227 0.904191 13.516 0.917523 13.5194 0.920857C13.5227 0.92419 13.536 0.917523 13.5394 0.920857C13.5428 0.924273 13.5363 0.937106 13.5394 0.940856C13.5421 0.944189 13.5563 0.937689 13.5594 0.940856C13.5627 0.944189 13.5567 0.956855 13.5594 0.960855C13.562 0.964855 13.556 0.977521 13.5594 0.980854C13.5623 0.983854 13.5769 0.977604 13.5794 0.980854C13.5822 0.984687 13.5759 0.99752 13.5794 1.00085C13.5821 1.0036 13.5972 0.997687 13.5994 1.00085C13.6024 1.00552 13.5967 1.01594 13.5994 1.02085C13.6015 1.02485 13.5962 1.03768 13.5994 1.04077C13.6014 1.04293 13.6183 1.03835 13.6194 1.04077C13.6212 1.04527 13.6194 1.05593 13.6194 1.06085C13.6194 1.06585 13.6175 1.07618 13.6194 1.08085C13.6203 1.08318 13.6374 1.07885 13.6394 1.08085C13.6418 1.08327 13.6384 1.09727 13.6394 1.10085C13.6408 1.10652 13.6394 1.11493 13.6394 1.12085V1.14085C13.6434 1.14351 13.656 1.13743 13.6594 1.14085C13.6613 1.14276 13.6592 1.15793 13.6594 1.16085C13.6596 1.16568 13.6573 1.17643 13.6594 1.18085C13.6606 1.18351 13.6771 1.1786 13.6794 1.18085C13.6813 1.18268 13.6793 1.19793 13.6794 1.20084C13.6796 1.20593 13.6774 1.21618 13.6794 1.22076C13.6804 1.22343 13.6972 1.21868 13.6994 1.22076C13.7013 1.22276 13.6992 1.23793 13.6994 1.24084C13.6997 1.24609 13.6974 1.25593 13.6994 1.26084C13.7009 1.26476 13.6965 1.27801 13.6994 1.28084C13.7014 1.28292 13.7184 1.27842 13.7194 1.28084C13.7212 1.28534 13.7194 1.29584 13.7194 1.30076V1.32084C13.7194 1.32567 13.7175 1.33642 13.7194 1.34084C13.7204 1.34334 13.7373 1.33875 13.7394 1.34084C13.7423 1.34375 13.7377 1.35684 13.7394 1.36084C13.7411 1.36475 13.7364 1.37784 13.7394 1.38075C13.7421 1.38367 13.7572 1.37759 13.7593 1.38075C13.7624 1.3855 13.7564 1.39609 13.7593 1.40084C13.7619 1.40484 13.756 1.4175 13.7593 1.42083C13.7627 1.42417 13.7754 1.41817 13.7794 1.42083V1.44083C13.7794 1.44667 13.7779 1.45517 13.7794 1.46083C13.7802 1.46433 13.7769 1.47833 13.7794 1.48083C13.7809 1.48233 13.7989 1.47908 13.7994 1.48083C13.8008 1.48658 13.7994 1.49491 13.7994 1.50083V1.52083V1.54075C13.8034 1.5435 13.816 1.5375 13.8194 1.54075C13.8213 1.54275 13.8192 1.55783 13.8194 1.56083C13.8196 1.56533 13.8173 1.57691 13.8194 1.58083C13.8209 1.58374 13.8369 1.57841 13.8394 1.58083C13.8424 1.58383 13.8375 1.59683 13.8394 1.60083C13.8412 1.60483 13.8364 1.61783 13.8394 1.62083C13.8414 1.62291 13.8583 1.61833 13.8594 1.62083C13.8613 1.62524 13.8594 1.63599 13.8594 1.64082V1.66082C13.8634 1.66349 13.876 1.65749 13.8794 1.66082C13.8818 1.66324 13.8784 1.67724 13.8794 1.68082C13.8807 1.68649 13.8794 1.69491 13.8794 1.70082C13.8794 1.70641 13.8777 1.71549 13.8794 1.72074C13.8805 1.72449 13.8768 1.73815 13.8794 1.74082C13.8822 1.74357 13.8973 1.73765 13.8994 1.74082C13.9024 1.7454 13.8969 1.75574 13.8994 1.76082V1.78082C13.8994 1.78324 13.8978 1.79957 13.8994 1.80073C13.9013 1.8024 13.9187 1.79882 13.9193 1.80073C13.9211 1.80582 13.9193 1.81548 13.9193 1.82082C13.9193 1.82532 13.9174 1.83682 13.9193 1.84082C13.9207 1.84348 13.937 1.83857 13.9393 1.84082C13.9413 1.84265 13.9392 1.8579 13.9393 1.86082C13.9396 1.86531 13.9372 1.87698 13.9393 1.88073C13.9409 1.88373 13.9569 1.87831 13.9593 1.88073C13.9623 1.8839 13.9574 1.89681 13.9593 1.90081C13.9613 1.90481 13.9593 1.91615 13.9593 1.92081C13.9593 1.92315 13.9578 1.93948 13.9593 1.94081C13.9613 1.94239 13.9786 1.93881 13.9793 1.94081C13.9811 1.94581 13.9793 1.95548 13.9793 1.96081C13.9793 1.96464 13.9773 1.97764 13.9793 1.98081C13.9813 1.98398 13.9966 1.97806 13.9993 1.98081C14.0027 1.98414 13.996 1.99748 13.9993 2.00081C14.0027 2.00414 14.016 1.99748 14.0193 2.00081C14.0227 2.00414 14.0167 2.01681 14.0193 2.02081C14.0233 2.02347 14.036 2.01747 14.0393 2.02081C14.0418 2.02322 14.0384 2.03722 14.0393 2.04072C14.0408 2.04647 14.0393 2.05489 14.0393 2.06081C14.0393 2.06639 14.0377 2.07547 14.0393 2.08081C14.04 2.08281 14.0577 2.07906 14.0593 2.08081C14.0618 2.08322 14.0584 2.09722 14.0593 2.1008C14.0608 2.10647 14.0593 2.11489 14.0593 2.1208V2.1408C14.0633 2.14347 14.076 2.13739 14.0793 2.1408C14.0827 2.14414 14.0767 2.1568 14.0793 2.1608C14.0821 2.1648 14.076 2.17747 14.0793 2.1808C14.0818 2.1833 14.0977 2.17788 14.0993 2.1808C14.1013 2.18438 14.0993 2.19655 14.0993 2.2008C14.0993 2.20322 14.0978 2.21947 14.0993 2.22072C14.1033 2.22405 14.1148 2.21813 14.1193 2.22072V2.2608C14.1233 2.26346 14.136 2.25746 14.1393 2.2608C14.1412 2.26263 14.1392 2.27788 14.1393 2.2808C14.1397 2.28738 14.1389 2.29413 14.1393 2.30071C14.1398 2.30746 14.1393 2.31421 14.1393 2.32079V2.34079C14.1433 2.34346 14.156 2.33746 14.1593 2.34079C14.1627 2.34413 14.1567 2.35679 14.1593 2.36079C14.1619 2.36479 14.156 2.37746 14.1593 2.38071C14.1618 2.38329 14.1777 2.37779 14.1793 2.38071C14.1813 2.38429 14.1793 2.39654 14.1793 2.40079C14.1793 2.40312 14.1778 2.41946 14.1793 2.42079C14.1833 2.42404 14.1948 2.41821 14.1993 2.42079V2.44079C14.1993 2.44662 14.1979 2.45512 14.1993 2.46079C14.2002 2.46429 14.1968 2.47829 14.1993 2.48079C14.2008 2.48229 14.2189 2.47904 14.2193 2.48079C14.2208 2.48654 14.2193 2.49487 14.2193 2.50079V2.52079V2.5407C14.2233 2.54345 14.236 2.53745 14.2393 2.5407C14.2413 2.5427 14.2392 2.55778 14.2393 2.56078C14.2396 2.56528 14.2373 2.57687 14.2393 2.58078C14.2409 2.5837 14.2568 2.57837 14.2593 2.58078C14.2623 2.58378 14.2575 2.59678 14.2593 2.60078C14.2612 2.60478 14.2563 2.61778 14.2593 2.62078C14.2614 2.62286 14.2782 2.61828 14.2793 2.62078C14.2812 2.6252 14.2793 2.63595 14.2793 2.64078C14.2793 2.64578 14.2775 2.6562 14.2793 2.66078C14.2802 2.6632 14.2973 2.6587 14.2993 2.66078C14.3018 2.6632 14.2984 2.6772 14.2993 2.68078C14.3008 2.68645 14.2993 2.69486 14.2993 2.70078C14.2993 2.70636 14.2977 2.71544 14.2993 2.72069C14.3 2.72278 14.3177 2.71903 14.3193 2.72069C14.3217 2.72319 14.3184 2.73719 14.3193 2.74078C14.3207 2.74644 14.3193 2.75494 14.3193 2.76078V2.78077C14.3233 2.78336 14.336 2.77744 14.3393 2.78077C14.3426 2.78411 14.3367 2.79677 14.3393 2.80069C14.342 2.80469 14.336 2.81744 14.3393 2.82077C14.3426 2.82411 14.3553 2.81802 14.3593 2.82077V2.84077C14.3593 2.84661 14.3579 2.8551 14.3593 2.86077C14.3602 2.86427 14.3568 2.87827 14.3593 2.88069C14.3608 2.88227 14.3789 2.87902 14.3793 2.88069C14.3807 2.8866 14.3793 2.89477 14.3793 2.90077V2.92077V2.94077C14.3833 2.94335 14.396 2.93743 14.3993 2.94077C14.4012 2.94268 14.3992 2.95785 14.3993 2.96077C14.3996 2.96527 14.3972 2.97685 14.3993 2.98077C14.4009 2.98368 14.4168 2.97827 14.4193 2.98077C14.4223 2.98377 14.4175 2.99677 14.4193 3.00077C14.4212 3.00476 14.4163 3.01776 14.4193 3.02076C14.4214 3.02285 14.4382 3.01826 14.4393 3.02076C14.4412 3.02518 14.4393 3.03593 14.4393 3.04068V3.06076C14.4433 3.06343 14.456 3.05743 14.4593 3.06076C14.4612 3.06268 14.4592 3.07785 14.4593 3.08076C14.4597 3.08601 14.4573 3.09584 14.4593 3.10076C14.4608 3.10468 14.4565 3.11784 14.4593 3.12076C14.4621 3.12351 14.4772 3.11751 14.4793 3.12076C14.4824 3.12543 14.4766 3.13584 14.4793 3.14076C14.4815 3.14476 14.4762 3.15759 14.4793 3.16076C14.4821 3.16359 14.4972 3.15759 14.4993 3.16076C14.5022 3.16509 14.496 3.17676 14.4993 3.18076C14.5022 3.18409 14.5162 3.17759 14.5193 3.18076C14.5226 3.18392 14.5171 3.19667 14.5193 3.20076C14.5216 3.20476 14.5161 3.21751 14.5193 3.22067C14.5222 3.22359 14.5372 3.21751 14.5393 3.22067C14.5424 3.22534 14.5363 3.236 14.5393 3.24075C14.5419 3.24484 14.5361 3.25742 14.5393 3.26075C14.5419 3.26334 14.5576 3.25767 14.5593 3.26075C14.5613 3.26409 14.5593 3.27667 14.5593 3.28075C14.5593 3.28317 14.5577 3.2995 14.5593 3.30067C14.563 3.30375 14.5761 3.29734 14.5793 3.30067C14.5826 3.30417 14.5759 3.31742 14.5793 3.32075C14.5827 3.32408 14.5953 3.318 14.5993 3.32075V3.34075Z"/>
  </g>
</svg>
