<?xml version="1.0"?>
<svg xmlns="http://www.w3.org/2000/svg" viewBox="0 0 14 14" fill="#ffffff">
  <path fill-rule="evenodd" clip-rule="evenodd" d="M1.76689 9.56374V12.2026H12.2276C12.263 11.3584 12.2327 10.4333 12.2428 9.56372C12.8106 9.56374 13.4118 9.57376 13.9888 9.56374V12.5514C13.9888 13.2672 13.9868 13.7706 13.4119 13.9315C13.0137 14.043 12.3312 13.9619 11.8177 13.9619H2.07053C1.0353 13.9619 0.157356 14.1244 0.0360785 13.2187C-0.0350149 12.6878 0.0208941 12.0424 0.0208941 11.414V9.60922C0.0196034 9.5877 0.0183886 9.56628 0.0360785 9.56374H1.76689Z"/>
  <path fill-rule="evenodd" clip-rule="evenodd" d="M11.4837 6.46989C10.3356 5.31152 9.13112 4.09821 7.97658 2.99688V10.4737H6.23059V3.01205C6.15609 2.97997 6.08359 3.11339 6.01804 3.17887C4.94134 4.25438 3.80778 5.38982 2.70825 6.45473C2.42268 6.14736 1.49522 5.27794 1.49365 5.24145C1.49245 5.21335 4.61758 2.13607 6.03322 0.721966C6.38456 0.37101 6.87123 -0.262614 7.55146 0.145661C7.7764 0.28067 7.98517 0.548566 8.20431 0.76747C9.67728 2.23882 11.252 3.79638 12.6983 5.25661C12.277 5.64461 11.9177 6.09453 11.4837 6.46989Z"/>
</svg>
